/* XPM */
static char *_499c490553a4eeebdadc680b06cc16362XkZyh6OjkfgZG8[] = {
/* columns rows colors chars-per-pixel */
"64 64 184 2 ",
"   c #3E6E05",
".  c #455A0D",
"X  c #445814",
"o  c #48630C",
"O  c #446D0D",
"+  c #427D05",
"@  c #497C06",
"#  c #44740A",
"$  c #48750F",
"%  c #457C0C",
"&  c #4B7C0E",
"*  c #50780F",
"=  c #4D6214",
"-  c #466D10",
";  c #4B6A10",
":  c #4B6E19",
">  c #516417",
",  c #467213",
"<  c #497315",
"1  c #477D11",
"2  c #4B7E11",
"3  c #4D7C18",
"4  c #507F12",
"5  c #56771B",
"6  c #517F1B",
"7  c #3F8304",
"8  c #448405",
"9  c #458A05",
"0  c #488A06",
"q  c #46850B",
"w  c #4B850C",
"e  c #478B09",
"r  c #4A8C0B",
"t  c #50860A",
"y  c #538D0E",
"u  c #588F0C",
"i  c #449406",
"p  c #45930C",
"a  c #4B930D",
"s  c #479B0C",
"d  c #4A9A0C",
"f  c #50930F",
"g  c #519B0F",
"h  c #5C940C",
"j  c #478211",
"k  c #4C8413",
"l  c #4E8A14",
"z  c #4E8318",
"x  c #528214",
"c  c #538C13",
"v  c #52821B",
"b  c #518B19",
"n  c #469712",
"m  c #4D9512",
"M  c #4D9B13",
"N  c #539514",
"B  c #5B9414",
"V  c #539C13",
"C  c #5B9B15",
"Z  c #56961A",
"A  c #5B951A",
"S  c #569C19",
"D  c #5C9B1C",
"F  c #639C15",
"G  c #639C1C",
"H  c #4FA013",
"J  c #54A315",
"K  c #59A115",
"L  c #55A319",
"P  c #5BA41A",
"I  c #56A91A",
"U  c #5AA91B",
"Y  c #63A316",
"T  c #63A31C",
"R  c #6BA41D",
"E  c #65AA1E",
"W  c #6CAC1D",
"Q  c #71A61F",
"!  c #72AB1F",
"~  c #5B9C21",
"^  c #609E23",
"/  c #5EA621",
"(  c #64A224",
")  c #6CA522",
"_  c #64AD22",
"`  c #6BAC22",
"'  c #6EAC2A",
"]  c #73AC24",
"[  c #73AD2A",
"{  c #6BB225",
"}  c #75B325",
"|  c #79B226",
" . c #75B22C",
".. c #7CB42C",
"X. c #73B82E",
"o. c #7BBA2D",
"O. c #71AF30",
"+. c #76B434",
"@. c #7BB734",
"#. c #7EB933",
"$. c #7FBD3B",
"%. c #7EC139",
"&. c #7DAE5F",
"*. c #84B72E",
"=. c #82B92D",
"-. c #84B533",
";. c #85BB32",
":. c #89BE34",
">. c #83BE39",
",. c #8EBE3E",
"<. c #84C033",
"1. c #8BC335",
"2. c #8BC834",
"3. c #83C33B",
"4. c #8CC43B",
"5. c #84C93F",
"6. c #8DC93D",
"7. c #91C537",
"8. c #92C63B",
"9. c #99C73D",
"0. c #95CA3E",
"q. c #98CC3E",
"w. c #95D13D",
"e. c #99D13E",
"r. c #87BE47",
"t. c #8FBF42",
"y. c #84BA50",
"u. c #8DC643",
"i. c #86C940",
"p. c #8CCA41",
"a. c #95C641",
"s. c #9AC642",
"d. c #96CA40",
"f. c #9FCA45",
"g. c #9DC945",
"h. c #99CC45",
"j. c #9ACD45",
"k. c #99CE46",
"l. c #9ACD46",
"z. c #9DCE47",
"x. c #99CB41",
"c. c #95C64B",
"v. c #95C54D",
"b. c #99C64A",
"n. c #97C849",
"m. c #96CF48",
"M. c #9ACA4A",
"N. c #9CCA49",
"B. c #99CF49",
"V. c #99CF4A",
"C. c #9DCE48",
"Z. c #9BC94E",
"A. c #9CCB4C",
"S. c #9BCC4E",
"D. c #99CD4E",
"F. c #9FCE4D",
"G. c #95D040",
"H. c #97D044",
"J. c #96D142",
"K. c #99D140",
"L. c #9AD142",
"P. c #9AD443",
"I. c #9BD145",
"U. c #9BD247",
"Y. c #9DD044",
"T. c #9BD545",
"R. c #9DD746",
"E. c #9AD044",
"W. c #9BD048",
"Q. c #9ED049",
"!. c #9CD24E",
"~. c #9BD44D",
"^. c #9ED64F",
"/. c #9CCB53",
"(. c #99CF51",
"). c #9FCC50",
"_. c #9FD753",
"`. c #9DD15F",
"'. c #A2CE47",
"]. c #A1CC49",
"[. c #A3D148",
"{. c #A7D34D",
"}. c #A1CE51",
"|. c #A4D353",
/* pixels */
"s.9.s.[.'.{.f.f.'.f.9.x.a.b./.v.v.c.c.n.S.S.Z.Z.F.}.|.F.M.A.N.F.A.M.).b.,.4.~.h.m.~._.d.m.^.Q.k.Q.x.q.e.0.x.q.0.q.L.h.a.u.S.`.&.",
"G.q.0.e.0.U.h.h.k.h.h.q.q.x.h.h.H.H.h.q.q.0.q.x.k.U.k.x.k.k.x.k.h.h.k.k.k.f.f.f.z.A.M.Q.W.k.x.x.0.U.q.U.h.h.k.U.h.h.h.H.B.B.(.y.",
"w.w.0.w.q.d.H.h.h.h.H.e.0.e.q.L.q.q.q.0.q.q.q.0.x.x.x.k.x.x.x.x.k.x.h.x.x.g.].f.A.h.x.A.x.z.x.U.U.0.x.h.k.B.h.h.h.h.L.L.x.x.!.r.",
"x.q.q.x.x.x.x.x.x.x.x.x.x.x.x.x.x.x.x.x.x.x.x.x.x.x.x.x.x.x.x.x.k.x.k.k.k.x.x.x.x.x.x.x.x.x.x.x.x.x.x.x.x.x.h.q.q.G.G.q.0.w.P.u.",
"q.q.q.q.x.x.x.x.x.x.x.x.x.x.x.x.x.x.x.x.x.x.x.x.x.x.x.x.x.x.x.x.x.x.x.x.x.x.x.x.x.x.x.x.x.x.x.x.x.x.x.x.x.h.h.q.q.q.q.q.q.w.R.4.",
"q.q.q.q.x.x.x.x.x.x.x.x.x.x.x.x.x.x.x.x.x.x.x.x.x.x.x.x.x.x.h.x.x.x.x.x.x.x.x.x.x.x.x.x.x.x.x.x.x.x.x.h.x.h.q.q.q.q.q.q.q.w.T.5.",
"q.q.q.q.x.x.x.x.x.x.x.x.x.x.x.x.x.x.x.x.q.x.x.x.x.x.x.x.x.x.h.k.x.x.x.x.x.x.x.x.x.x.x.x.x.x.x.x.x.x.h.h.x.x.q.q.q.q.q.q.q.q.e.1.",
"q.q.q.q.x.x.x.x.x.x.x.x.x.x.x.x.x.h.x.x.q.q.x.x.x.x.x.x.x.x.x.x.x.x.x.x.x.x.x.x.x.x.x.x.x.x.x.x.x.x.q.h.x.x.x.q.q.q.q.q.q.q.e.2.",
"q.q.q.q.x.x.x.x.x.x.x.x.x.x.x.x.x.x.x.x.x.x.x.x.x.x.x.x.x.q.x.x.x.x.x.x.0.x.x.x.x.x.x.x.x.x.x.x.0.0.h.h.h.h.x.q.q.q.q.q.q.q.e.2.",
"q.q.q.q.0.x.x.x.x.x.x.x.x.x.x.x.x.x.x.x.x.x.x.x.x.x.x.x.x.x.x.x.x.x.x.x.x.x.x.x.x.x.x.x.x.x.x.x.x.q.h.h.x.x.x.q.q.q.q.q.q.q.e.2.",
"q.q.q.q.0.x.x.x.x.x.x.x.x.x.x.x.x.x.x.x.x.x.x.x.x.x.x.x.x.x.x.x.x.x.x.x.x.x.x.x.x.x.x.x.x.x.x.x.x.x.h.h.h.x.x.q.q.q.q.q.q.q.L.2.",
"q.q.q.q.0.x.x.x.x.x.x.x.x.x.x.x.x.x.x.x.x.x.x.x.x.x.x.x.x.x.x.x.x.x.x.x.x.x.x.x.x.x.x.x.x.x.x.x.x.x.x.x.x.x.x.q.q.q.q.q.q.q.L.4.",
"q.q.q.q.q.x.x.x.x.x.x.x.x.x.x.x.x.x.x.x.x.x.x.x.x.x.x.x.x.x.x.x.x.x.x.x.x.x.x.x.x.x.x.x.x.x.x.x.q.q.x.x.x.h.q.q.q.q.q.q.q.q.L.4.",
"0.0.q.q.q.x.x.x.x.0.0.x.x.x.x.x.x.0.0.0.0.0.0.0.x.x.x.x.x.x.x.x.x.x.x.x.x.x.x.x.x.x.x.x.x.x.x.x.q.q.x.x.x.x.q.q.q.q.q.q.q.q.L.4.",
"0.0.q.q.q.x.x.x.0.0.0.x.x.x.x.x.x.0.0.0.q.q.q.q.x.x.x.x.x.x.x.x.x.x.x.x.x.x.x.x.x.x.x.x.x.x.x.x.0.q.q.x.x.x.q.q.q.q.q.q.q.q.L.5.",
"q.q.q.q.q.x.x.x.0.0.0.x.x.x.x.x.x.0.0.0.q.q.q.q.x.x.x.x.x.x.x.x.x.x.x.x.x.x.x.x.x.x.x.x.x.x.x.x.q.q.x.x.x.x.0.0.q.q.q.q.q.q.x.6.",
"q.q.q.q.q.q.q.q.0.0.0.x.x.x.x.x.x.0.0.0.0.0.0.0.x.x.x.x.x.x.x.x.x.x.x.x.x.x.x.x.x.x.x.x.x.x.x.x.x.x.q.q.q.q.q.q.q.0.x.0.x.x.U.1.",
"0.0.0.q.q.q.0.0.0.0.0.x.x.x.x.x.x.x.0.0.0.0.0.x.x.x.x.x.x.x.x.x.x.x.x.x.x.x.x.x.x.x.x.x.x.x.x.x.x.x.q.q.q.q.q.h.q.x.q.0.h.0.U.1.",
"q.q.q.0.0.0.q.q.0.0.0.x.x.x.x.x.x.x.x.0.0.0.x.x.x.x.x.x.x.x.x.x.x.x.x.x.x.x.x.x.x.x.x.x.x.x.x.x.x.x.q.q.h.h.q.h.0.h.0.q.h.1.U.>.",
"0.0.0.0.0.0.q.0.q.q.0.0.0.0.0.0.0.x.x.0.0.0.x.x.x.x.x.x.x.x.x.x.x.x.x.x.x.x.x.x.x.x.x.x.x.x.x.x.x.x.h.h.h.h.q.0.x.k.h.h.x.:.x...",
"0.8.0.0.0.q.q.x.0.0.0.q.0.0.0.0.0.x.x.x.0.x.x.x.x.x.x.x.x.x.x.x.x.x.x.x.x.x.x.x.x.x.x.x.x.x.x.x.x.x.h.h.h.h.0.0.h.x.0.k.k...R F ",
"8.0.q.q.0.0.0.x.0.0.q.q.0.0.0.0.q.x.x.x.x.x.x.x.x.x.x.x.x.x.x.x.x.x.x.x.x.x.x.x.x.x.x.x.x.x.x.x.x.x.x.h.h.0.0.0.0.x.h.d.5.] B c ",
"2.0.q.q.0.0.0.0.0.x.x.q.0.0.0.0.q.0.0.0.0.x.x.x.x.x.x.x.x.x.x.x.x.x.x.x.x.x.x.x.x.x.x.x.x.x.x.x.x.x.0.x.h.h.h.0.x.x.d...B u y w ",
"<.8.q.q.0.0.0.q.0.0.0.q.0.0.0.0.0.0.0.0.q.x.x.x.x.x.x.x.x.x.x.x.x.x.x.x.x.x.x.x.x.x.x.x.x.x.x.x.x.x.x.x.x.0.x.h.d.d.5.#.] ) B c ",
"o.2.h.0.0.0.0.0.0.x.x.x.x.x.x.x.x.x.x.x.x.x.x.x.x.x.x.x.x.x.x.x.x.x.x.x.x.x.x.x.x.x.x.x.x.x.x.x.x.x.x.x.x.x.x.d.h...F F B B B k ",
"G.G.0.0.h.q.0.x.x.x.x.x.x.x.x.x.x.x.x.x.x.x.x.x.x.x.x.x.x.x.x.x.x.x.x.x.x.x.x.x.x.x.x.x.x.x.x.x.x.x.x.x.x.x.x.x.h.1.) ( G G A x ",
"h.0.0.0.h.0.0.0.x.x.x.x.x.x.x.x.x.x.x.x.x.x.x.x.x.x.x.x.x.x.x.x.x.x.x.x.x.x.x.x.x.x.x.x.x.x.x.x.x.x.x.x.x.0.1.-.| ] G B B B c k ",
"d.d.h.h.0.0.x.x.x.x.x.x.x.x.x.x.x.x.x.x.x.x.x.x.x.x.x.x.x.x.x.x.x.x.x.x.x.x.x.x.x.x.x.x.x.x.x.x.x.x.a.x.x.x.>.] Q ) ) ) A B c 1 ",
"0.0.0.0.0.0.x.x.x.x.x.x.x.x.x.x.x.x.x.x.x.x.x.x.x.x.x.x.x.x.x.x.x.x.x.x.a.x.x.x.x.x.x.x.x.x.x.x.x.x.x.0.0.h.0.1.*.....[ ( ( c k ",
"h.0.x.x.9.q.x.x.x.x.x.x.x.x.x.x.x.x.x.x.x.x.x.x.x.x.x.x.x.x.x.x.x.x.x.x.x.x.x.x.x.x.x.x.x.x.x.x.x.x.q.0.q.q.4.*.| | R ) F F y w ",
"h.h.0.0.q.q.x.x.x.x.x.x.x.x.x.x.x.x.x.x.x.x.x.x.x.x.x.x.x.x.x.x.x.x.x.x.x.x.x.x.x.x.x.x.x.x.x.x.x.x.0.q.x.0.1.*.| ] T T C C y w ",
"0.0.0.0.q.q.x.x.x.x.x.x.x.x.x.x.x.x.x.x.x.x.x.x.x.x.x.x.x.x.x.x.x.x.x.x.x.x.x.x.x.x.x.x.x.x.x.x.x.x.0.0.0.0.q.U.0.1...) R C B t ",
"0.0.0.0.0.0.x.x.x.x.x.x.x.x.x.x.x.x.x.x.x.x.x.x.x.x.x.x.x.x.x.x.x.x.x.x.x.x.x.x.x.x.x.x.x.d.d.d.x.x.0.q.q.q.0.h.h.d.o.R R T F y ",
"h.0.0.x.x.0.x.x.x.x.x.x.x.x.x.x.x.x.x.x.x.x.x.x.x.x.x.x.x.x.x.x.x.x.x.x.x.x.x.x.x.x.x.x.x.d.x.d.x.x.0.0.0.0.0.0.h.h.<.| ] | ) B ",
"h.0.0.0.0.0.x.x.x.x.x.x.x.x.x.9.9.x.x.x.x.x.x.x.x.x.x.x.x.x.x.x.x.x.x.x.x.x.x.x.x.x.x.x.x.x.x.d.x.x.0.0.0.0.q.h.0.6.0.p...#.] F ",
"q.0.0.0.0.0.x.x.x.x.x.x.x.x.x.x.x.x.x.x.x.x.x.x.x.x.x.x.x.x.x.x.x.x.x.x.x.9.9.9.9.9.9.9.9.0.0.0.0.0.0.0.0.0.0.0.0.0.h.h.-...] h ",
"q.q.0.0.0.0.x.x.x.x.x.x.x.x.x.x.x.x.x.x.x.x.x.x.x.x.x.x.x.x.x.x.x.x.x.x.x.x.x.x.x.x.x.x.x.x.x.x.x.x.0.0.0.0.0.0.0.0.d.h.1.;.-.F ",
"0.0.0.0.0.0.x.x.x.x.x.x.x.x.x.x.x.x.x.x.x.x.x.x.x.x.x.x.x.x.x.x.x.x.x.x.x.x.x.x.x.x.x.x.x.x.x.x.x.x.x.0.0.0.0.0.8.8.q.h.1.<.;.F ",
"0.0.0.0.0.0.x.x.x.x.x.x.x.x.x.x.x.x.x.x.x.x.x.x.x.x.x.x.x.x.x.x.x.x.x.x.x.x.x.x.x.x.x.x.x.d.x.x.x.x.0.0.0.0.0.8.0.8.0.0.:.;.*.F ",
"0.0.0.0.0.0.x.x.x.x.9.x.x.x.x.x.x.x.x.x.x.x.x.x.x.x.x.x.x.x.x.x.x.x.x.x.x.x.x.x.x.x.x.x.x.x.x.x.x.x.0.0.0.0.0.8.0.8.0.0.;.;.-.F ",
"0.0.0.0.0.0.x.x.x.0.9.x.x.x.x.x.x.x.x.x.x.x.x.x.x.x.x.x.x.x.x.x.x.x.x.x.x.0.0.0.9.0.0.0.0.d.0.0.0.0.0.0.0.0.0.8.0.8.q.0.:.;.=.F ",
"0.0.0.0.0.0.0.0.9.9.9.x.x.x.x.x.x.x.x.x.x.x.x.x.x.x.x.x.x.x.x.x.x.x.x.x.x.0.9.0.9.9.0.0.0.d.0.0.0.0.d.0.0.0.0.0.0.8.8.0.:.=.*.F ",
"q.q.q.q.0.0.0.0.9.9.9.x.x.x.x.x.x.x.x.x.x.x.x.x.x.a.x.a.a.a.a.a.a.a.a.a.a.0.9.9.9.9.9.0.9.9.0.9.9.9.d.d.d.0.0.0.0.8.0.0.:.-.;.F ",
"8.q.q.q.0.0.0.0.9.9.9.x.x.x.x.x.x.x.x.x.x.x.x.x.a.x.x.x.0.0.0.0.9.9.x.0.0.0.9.a.9.9.0.9.9.9.9.9.9.9.a.0.d.0.0.0.0.0.0.x.:.;.;.Y ",
"q.0.0.0.0.0.0.0.0.0.0.x.x.x.x.x.x.x.x.x.x.x.x.x.9.0.x.x.0.0.0.0.9.9.9.9.0.0.0.0.9.9.9.9.9.x.x.x.0.0.x.0.0.0.0.0.0.0.0.0.;.;.;.F ",
"q.0.0.0.0.0.0.0.0.0.0.x.x.x.x.x.x.x.x.x.x.x.x.x.0.0.0.0.0.0.0.0.0.0.0.0.0.0.0.0.0.0.0.0.0.0.d.d.0.0.0.0.0.0.8.8.8.8.0.0.:.*.;.F ",
"q.q.0.0.0.0.0.0.0.0.0.0.9.9.9.9.9.0.0.0.0.0.0.0.0.0.0.0.0.0.0.0.0.0.0.0.0.0.0.0.0.a.0.0.0.0.d.0.0.0.0.0.0.8.8.8.8.0.0.x.:.*.-.F ",
"8.8.8.q.0.9.9.0.0.0.0.9.9.9.9.9.9.0.0.0.0.0.0.0.0.0.0.0.0.0.0.0.0.0.0.0.0.0.0.0.a.a.0.0.0.d.d.0.0.0.0.8.8.8.8.8.8.8.8.1.....-.F ",
"8.8.0.0.0.q.q.0.0.q.8.8.8.0.0.0.9.0.0.0.0.0.0.0.8.0.8.0.q.q.0.8.8.8.q.8.8.0.0.0.0.0.0.0.0.0.0.0.0.0.8.8.0.8.8.8.8.0.1.:.Q ..;.G ",
"1.4.0.8.0.0.q.q.q.q.q.8.0.0.0.0.9.9.0.0.0.0.0.0.8.8.8.q.0.q.8.8.8.8.q.q.8.0.0.0.0.0.0.0.8.8.0.0.0.0.8.8.8.4.8.0.0.0.4.>.R ] ..G ",
"! o.2.8.q.q.8.8.8.0.q.0.0.0.0.0.9.9.9.0.0.0.0.0.0.0.h.0.0.0.0.0.0.0.0.0.0.8.0.0.0.0.8.0.8.8.0.0.0.0.8.8.8.8.0.4.4.1.1.4...R G B ",
"W } 2.0.8.8.8.q.q.q.0.0.0.0.0.0.9.9.9.0.0.0.0.0.h.0.0.8.0.0.8.0.0.0.0.0.0.0.0.8.0.0.0.8.8.8.8.8.8.0.0.8.0.0.4...| | ..#.[ ) ) A ",
"W } 1.2.7.8.q.q.0.0.0.0.0.0.0.0.9.0.0.0.0.0.0.0.0.0.0.0.0.0.0.0.0.0.0.0.0.0.0.8.0.0.0.8.8.8.8.8.8.8.0.4.4.0.4.| ] ....>.@.@.@.G ",
"Y W <.2.4.7.7.7.7.8.8.9.0.0.0.0.9.9.9.9.0.0.9.9.8.0.0.h.0.8.0.0.8.8.0.8.4.8.8.8.8.8.8.4.8.8.8.8.8.8.4.4.1.4.4...W [ [ ' A ^ ( b ",
"K Y o.<.1.4.4.7.8.1.8.9.0.9.0.0.8.0.8.0.9.8.0.0.1.0.0.d.4.;.1.0.0.0.:.4.4.8.4.4.4.0.0.0.0.0.4.0.0.1.4.p.4.>.>.[ `  . .@.( A c k ",
"E E o.3.4.6.6.0.,.1.a.a.s.8.9.8.7.q.7.8.8.1.a.4.-.a.,.4.4.#.4.u.u.4.] ;.u.4.8.8.8.0.4.4.0.8.t.t.c.-.@.>.#.+.$.' ( O.+.+.G y A l ",
"P P _ E E { ` ` Y [ d.p.6.4.6.p.6.6.6.p.3.%.i.3.X.i.i.i.5.X.%.i.5.%.T X.p.6.p.6.5.6.5.5.5.5.u.u.u. .' $.3.@.+.( D ( ( ( N r c q ",
"p p M d d V V C g C ` T T P E E E E { { U V / / P _ _ _ _ P P P K U V P _ ` ` _ E _ ` ` ` ` ' ' ' D T ( D A D ^ ^ ^ D D N N b q ",
"m M M M M V M K V V P L J L I J J I I U L p n M J I I I U I d s M H M M V V K K K K P J g V V V S d N Z r e q w l l j j w j j % ",
"r m S P S K V K V P _ I I I I H J I L L L a m p d L I J J J i d V M p m K V K P K V K V V K P C C a S ~ l l l l l l l l l b 1 % ",
"8 y N N r a a r 0 r f d g V d i d J K U S 0 m a d U I I V L a d S P a a P P P P C V K V g N V N N 0 N ~ q q j k k k 1 2 1 v 1 1 ",
"w N A B N N f f a r V K V V g a a a a m a 8 r q 9 a d a a m e a r N r w Z N N N N N N d a S S S N r b A l k k v v 6 v 6 3 3 < < ",
"@ w c y w w 8 8 8 8 r a 0 0 0 8 8 0 0 w q 8 w + 8 e r 8 e r 8 q 8 q % # l r q q 8 8 7 8 8 q 8 8 q + 1 2 #   O O O O O - < < < : ",
"* x x x & x 2 4 2 2 v c x x x & & k 2 & & & 2 # # 1 1 % & % % 1 % 3 < , v z k k k k % % 1 k 1 1 2 $ 5 5 ; o = = > = = X = = . X "
};
