/* XPM */
static char *_eeb8ca75c5a4cb4ddeeac96b5ba0233HzziS5OVWiwy63ch[] = {
/* columns rows colors chars-per-pixel */
"64 64 207 2 ",
"   c #432621",
".  c #472C25",
"X  c #4B2E25",
"o  c #493126",
"O  c #4A3229",
"+  c #553626",
"@  c #583826",
"#  c #553629",
"$  c #58372B",
"%  c #56392A",
"&  c #5B3B2C",
"*  c #573A30",
"=  c #5C3C33",
"-  c #5D3E39",
";  c #613D2D",
":  c #693E2D",
">  c #623924",
",  c #603F34",
"<  c #6D3F30",
"1  c #5F412D",
"2  c #5F4137",
"3  c #62412E",
"4  c #6D482F",
"5  c #71452F",
"6  c #634233",
"7  c #6B4434",
"8  c #674832",
"9  c #6C4A35",
"0  c #644339",
"q  c #6C463C",
"w  c #6D493C",
"e  c #724632",
"r  c #794633",
"t  c #744B35",
"y  c #794935",
"u  c #724C3C",
"i  c #794E3E",
"p  c #76513D",
"a  c #7C533D",
"s  c #7B5337",
"d  c #6E4D40",
"f  c #724B40",
"g  c #755241",
"h  c #7B5441",
"j  c #7D5944",
"k  c #7F5A4B",
"l  c #776C62",
"z  c #855B3E",
"x  c #895C3D",
"c  c #82563F",
"v  c #9E733E",
"b  c #A87C3F",
"n  c #A1793E",
"m  c #825742",
"M  c #8A5742",
"N  c #845B44",
"B  c #8A5D44",
"V  c #835C49",
"C  c #895D4B",
"Z  c #876146",
"A  c #8D6143",
"S  c #85624B",
"D  c #8B624A",
"F  c #916445",
"G  c #956946",
"H  c #91654D",
"J  c #966A48",
"K  c #9A6A4B",
"L  c #9E7341",
"P  c #8B6552",
"I  c #8F6B5A",
"U  c #946B54",
"Y  c #9A6D55",
"T  c #956E5B",
"R  c #9B6D59",
"E  c #9E7456",
"W  c #96715B",
"Q  c #9E745B",
"!  c #9E785C",
"~  c #A27543",
"^  c #A77F44",
"/  c #A57C4C",
"(  c #AB7E4D",
")  c #A97C46",
"_  c #A26F55",
"`  c #A17456",
"'  c #A57A56",
"]  c #AA7D55",
"[  c #A2765B",
"{  c #A3795B",
"}  c #A97D5C",
"|  c #816F61",
" . c #8E7269",
".. c #947464",
"X. c #9C7462",
"o. c #9E7962",
"O. c #997368",
"+. c #A37661",
"@. c #A47B61",
"#. c #AA7D61",
"$. c #A78048",
"%. c #AA824C",
"&. c #AC8346",
"*. c #B18547",
"=. c #B3854A",
"-. c #B6894D",
";. c #B98A4E",
":. c #AD8454",
">. c #AF8953",
",. c #AD825C",
"<. c #A78353",
"1. c #B28555",
"2. c #B38A55",
"3. c #BB8D53",
"4. c #B2845C",
"5. c #B58A5B",
"6. c #B98B5C",
"7. c #BC9154",
"8. c #BD925D",
"9. c #B4905C",
"0. c #AD8162",
"q. c #A98068",
"w. c #B38562",
"e. c #B88761",
"r. c #B68962",
"t. c #BA8B62",
"y. c #B58A6C",
"u. c #BB8D6A",
"i. c #BC9362",
"p. c #BE9965",
"a. c #BF946C",
"s. c #B79363",
"d. c #C18F5C",
"f. c #C19356",
"g. c #C3965A",
"h. c #C69A5D",
"j. c #C18F62",
"k. c #C29464",
"l. c #C49865",
"z. c #CB9D63",
"x. c #C4966C",
"c. c #C69A6B",
"v. c #CB9B6C",
"b. c #D09E6B",
"n. c #C39372",
"m. c #C69A71",
"M. c #CC9D73",
"N. c #CD9D7A",
"B. c #D49E75",
"V. c #CFA465",
"C. c #CDA46D",
"Z. c #D2A367",
"A. c #D4A46E",
"S. c #D8A76E",
"D. c #D4A96E",
"F. c #D9A96F",
"G. c #CEA172",
"H. c #CEA27A",
"J. c #D4A472",
"K. c #D8A672",
"L. c #D6A973",
"P. c #DCAC74",
"I. c #D3A47A",
"U. c #D8A778",
"Y. c #D6A97B",
"T. c #DBAC7A",
"R. c #CDB47D",
"E. c #D7B173",
"W. c #DEB175",
"Q. c #DEB27B",
"!. c #DDB97F",
"~. c #E0AE75",
"^. c #E0AE79",
"/. c #E2B376",
"(. c #E4BA77",
"). c #E2B77A",
"_. c #E6B77B",
"`. c #E6B77C",
"'. c #E4B67B",
"]. c #E8B77B",
"[. c #E5BA7A",
"{. c #E2BA7D",
"}. c #E5B97C",
"|. c #E7B97C",
" X c #E7BA7D",
".X c #E6BA7E",
"XX c #E6B97C",
"oX c #E8B87A",
"OX c #E8BA7D",
"+X c #EBBE7E",
"@X c #ECC07E",
"#X c #D7B882",
"$X c #DCBA84",
"%X c #D3B580",
"&X c #E3B582",
"*X c #E6BB80",
"=X c #E7BD81",
"-X c #E6BD86",
";X c #E5BA81",
":X c #EBBE81",
">X c #E6BD89",
",X c #E9BC8A",
"<X c #E8B682",
"1X c #EDC082",
"2X c #E3C081",
"3X c #F1C385",
"4X c #F1C489",
/* pixels */
"R.R.#X!.2X.X.X.X{.{.{.XXXX{.D.8.:.:.<.s.p.s.s.C.L.W.W.W.E.W.W.W.Q.T.~.~.~.W.W.W./.P.T.J.k.4.,.} } { @.@.@.@.[ [ ` ! Q W X.O. .l ",
"%X$X>X!.{..X.X.X.X.X.X).XX).!.l.>.2.2.2.9.p.C.T.!.Q.W.W.W.W.W.W.W.P.~.~.~.W.P.P.P.P.T.T.J.G.a.,.] { @.@.{ [ [ [ ` Q ` Q Q X...| ",
">X$X;X*X.X.XOXOX.X.X.X.X.X).=XQ.L.p.>.>.2.p.Q.&XQ.Q.P.W.(.W.W.W.W./.P.P.~.W.P.P.W.P.P.T.T.T.Y.m.w.' ' { ! [ [ ` ` E ` ` Q Q X...",
"-X-X=X'..XoXoX].'.'.`..X.X.X[..X=XE.2.2.:.2.i.v.'.Q.P.W.W.W././.~.~.^.^.~.W.P.P.P.P.P.P.P.T.U.U.a.,.' [ { { Q Q ` E ` ` Q Q Q W ",
".X)..X.X'.oXoXoX'.'.`..XOX.XXXXX(.XX1XL.%.2.:.( G.Q.'.P.W.W.W.P.P.~.^.^./.W.W.W.W.W.P.P.P.P.T.L.G.x.4.' [ ` [ Q Q ` ` ` ` ` Q E ",
".XXXXXXXXXoXXXXXXX.X.X`.`.).XX(.XX[.+X*XL.6.%.>.2.i.D.P.W.W.W.P.P.P.Q.T.P.P.~.P.P.P.P./.P.P.P.P.T.J.5.} ] [ ` Q Q Q Q Q Q Q E Q ",
"XXXX.XXXXXXXXXXXXX.X{..X.X'.(.(.+X+X'.:X-X'.2.>.2./ 1.7.D.W.P.P.P.P.P.P.P.P.~.~.P.P.P.~.P.P.P.L.L.c.k.m.u.} E Q ` Q Q Q Q Q Q E ",
".XXX.X.XXXXXXXXXXX[.[.XX.X.XoXoX+XOX+X1X:Xh.2.2.$.$.^ ^ C.Q.P.P.W.E.P.P.P.~.~./.P.P.~.~.P.~.P.P.P.v.M.G.m.w.E E Q Q Q W W W Q _ ",
".X'..X.XXX.XXXXXXXXXXXXXXXXXOX'.OXOX:X.Xz.&.7.8.>.n ^ 8.P.W.P.P.W.W.P.P.P.P././.~.~.~.~.P.P.P.P.^.P.v.m.H.n.0.[ ! [ Q Q W W Q R ",
"`.'..X.X.XOX.XXXXXXX'.XXXXXX.X`.].:X:XF.3.-.&.z.Q.D.P.).'.W.W.W.P.W.P.P.P.P.~.~.~.~.~.~.P.P.~.P.P.J.v.M.m.u.{ Q { [ [ Q W W Q ` ",
"`.`.].].].].].oXoXoXoX(.(.XX.X`.<XK.h.f.g.7.V..X4X1X1X:X:XOXOX/.P.~.W.W.W.P.P.P.~.~.~.~.P.P.P.P.L.K.J.M.w.' [ { Q [ [ Q W W E _ ",
".X.X.X.X.X`.OXXXXXXX'.`..X).'.'.F.g.*.b 7.P.:X1X1X+X:X:X:X3X.XP./.W.W.P.~.~.~.~.~.~.P.P.P.P.P.P.U.I.I.w.' ' ' [ E ` [ ` Q Q Q E ",
".X.X.X.X.XOX.X'.XXOXXX`.'..XOXZ.*.-.7.g.W.4X:X+X:X:X1X1X+X/.W.)./.W.W.P.P.~.~.~.~.P.~.P.P.P.J.J.J.M.u.' ' ' [ [ [ ` [ ` Q Q Q E ",
"'.'..X.XXX'.'..X.X).'.`.`.P.z.7.*.*.g..X1X.X1X1X1X:X1X1X1XXX.X)././.P.P.~.~.~.P.P.P.P.P.L.K.J.T.I.e.' ' ` ` ` ` ` ` ` [ Q Q Q E ",
"'.'.XX.XXX.X.X`.`.OX`.`.P.z.3.;.-.h.W.1X:X:X:X1X@X@X:X1X1X1X:XW.P.W.W.P.~.P.~.~.P.P.L.L.S.J.I.G.e.} ] ' { { { ! ! ` [ Q Q Q ` ` ",
"'.'.XX'.XX:XP.L.:X*X'.L.3.3.3.-.Z.1X1X:X1X1X1X@X+X1X+X1X1X:X:XXXP.P.W.W.P.P.~.P.P.L.L.K.K.U.H.r.} ' ' [ { { { { [ ` [ Q Q Q ` ` ",
"(.'.XXXX.X.X.X'.`.'.z.3.-.*.g.(.:X:X+X1X:X:X1X@X+X@X+X+X+X1X+X+X+XXXW.P.W.P.P.L.L.P.K.K.J.G.w.' ] ' ' Q { { ! ! ! ` ` Q Q ` ` ` ",
"(.(.OX`.'.:X.X:X'.l.3.;.*.7.P.:X+X+X+X+X+X1X1X+X+X+X+X+X+X:X:X:X:X:X/.P.W.P.P.P.L.P.P.T.v.1.' ' ' [ { { { { { ! Q ` ` Q Q Q ` E ",
":XXX.X.X`.:X).F.z.3.=.3.z.'.1XOXOX+X+X:X1X:X:X+X+X+X+X+X+X+X:X:X:X:X:X'.P.P.P.L.P.J.U.m.4.' ' { { [ { { { { { [ Q ` ` [ Q Q ` ` ",
"`.`.`.`..X.XA.;.=.3.=.g.:X:XOX+X:X@X1X1X1X:X+X+X+X+X+X+X+X+X:X:X+X+X+X:XOX.X'.L.J.Y.x.} ' } { { { { { { { { { [ Q [ ` [ Q Q ` Q ",
":X,X,XT.K.z.3.3.-.3.A..XOX'.:X+X@X@X1X@X1X:X+X@X@X@X+X+X+X+X+X+X+X+X+X+X+X1X,X&XT.M.,.} #.{ { { { { { [ [ { { ` [ [ [ ` Q Q Q Q ",
"<X<X,XK.3.3.3.-.;.(.+XOXOX.XOX+X1X@X+X+X:X:X@X@X@X@X+X+X+X+X+X+X+X+X+X@X+X.X:X,XU.w.,.#.{ @.{ { { { { ` ` [ [ ` [ ` ` [ Q Q Q Q ",
"&XT.K.f.-.;.-.z.(.+X+X:X:X1X+X+X+X@X+X+X+X1X@X@X@X@X+X+X@X@X+X+X+X+X+X+XOX:X,XJ.5.w.w.0.@.@.{ { { { { [ [ { [ [ [ ` ' [ Q Q Q W ",
"U.8.6.-.-.-.f.(.1X.X:X@X+X+X@X@X+X@X@X+X+X+X+X@X@X+X+X+X+X@X+X+X+X+X+X+X:X*XJ.6.r.w.w.w.#.#.{ { @.@.{ { [ [ [ [ [ ` ` +.X.X.X.X.",
"( 1.2.=.*.z.(.+X+X:X:X+X+X+X@X@X+X@X+X+X@X@X@X@X@X@X+X+X+X@X+X+X+X+X+XoX:X'.l.5.5.w.w.0.0.} ] ' @.@.{ [ [ [ [ [ [ ` ` Q W X.X.P ",
"~ ~ =.-.V.1X+XXX+X+X:X+X+X+X+X+X@X@X+X+X@X@X@X+X+X+X+X+X+X@X+X+X+X+X+X+XOX:X`.J.5.1.w.0.0.} } { @.@.{ [ [ [ [ [ [ [ [ X.X.X.V u ",
"~ ~ ) Z.:X.X:X+X+X+X:X+X+X+X+X+X@X@X+X+X@X+X+X+X+X+X+X+X+X+X+X+X+X+X+X+XOX.X:X<Xl.1.4.,.,.,.} } @.{ { { [ [ [ [ [ [ Q o.T k w q ",
"L ~ K.'..X:X+X1X+X+X@X+X@X+X+X+X@X+X+X+X+X+X+X+X+X+X+X+X+X+X+X+X+X+X+XXX+X@X.X{.Q.v.1.1.,.,.} } #.@.{ { [ [ [ [ Q o.X.I j g w = ",
"v 8.-X:X+X+X+X+X+X+X+X+X:X+X+X+X:X+X+X+X+X+X+X+X+X+X+X+X+X+X+X+X+X+X+X+X+X+X+X-X,XQ.c.1.,.,.,.} { #.{ { [ { { W o.Q P g w w 0 = ",
"C.*X{..X:X+X+X+X+X+X+X:X:X:X:X1X:X:X:X:X:X:X+X+X+X+X+X+X+X+X+X+X+X+X+X+X+X+X+X:X*X*X>XG.5.] ] } } { { { [ [ { @.Q S p q 0 = 0 = ",
"=X=X{.=X.X.X+X+X+X+X+X:X:X:X:X1X1X:X:X:X:X:X:X:X:X:X:X:X:X:X:X+X+X+X+X+X+X+X+X.X:X:X,X,XJ.4.,.} } { #.[ { { @.o.j w q 0 2 - , = ",
".X.X.XXX.X+X+X+X+X+X+X+X:X:X:X:X:X:X:X:X:X1X:X:X:X:X:X:X+X+X+X+X+X+X+X+X+XXX+X+X:X:X-X,X,XY.w.} } { { { [ { ! S u 9 8 0 0 0 - = ",
"@X+X[..X+X.X.X+X+X+X+X+X+X:X+X:X:X:X:X:X:X:X1X:X:X:X:X:X+X+X+X+X+X+X+X+X+XXXoX+X:X:X-X,X&Xc.,.] } } ' ' ` { Q V u 6 0 0 - - , = ",
"@X[.[.[..X.X.X+X+X+X+X+X+X+X:X:X:X:X:X:X:X1X1X:X:X:X:X:X+X+X+X+X+X+X:XOXoXoXoXoXXX:X<XT.c.4.,.] ' } ' { ' Q o.@.S 6 , 0 2 - - , ",
"[.[.[..X.X.X+X+X+X@X@X+X:X:X:X:X:X:X:X:X:X:X:X:X:X+X+X+X:X+X+X:X+X+XOX:X+XOX:X:X:X~.P.A.d.4.w.} } } { { { #.@.@.q.h 6 6 0 - - - ",
"(.[.[.XX+X+X+X+X+X@X@X+X+X+X:X:X:X:X:X:X:X:X:X:X:X:X+X+X+X+X+X+XOXOXOX:X:X:X:X'.L.A.A.K.z.j.u.w.,.0.#.#.{ @.@.q.y.T u 3 & 2 - - ",
"(.[.[.[.+X+X+X+X+X+X+X+X+X+X+X+X+X:X:X:X:X:X:X+X+X+X+X+XOXOX+X+XOX+X:X:X:X:X/.F.S.A.K.K.b.c.x.e.} } } { { #.q.q.#.! W j 3 6 & = ",
"[.[.[.XX+X+X+X+X+X+X+X+X+X+X+X+X+X+X+X+X+X+X+X+X+X+X+X+X+X:X:XOX+X+X:X:XOXL.A.S.S.A.K.K.K.A.l.e.1.] } ,.{ [ E Q Q [ ! ! S 8 1 & ",
"XX[.[.XX+X+X+X+X+X+X+X+X+X+X+X+X+X+X+X+X+X+X+X+X+X+X+X+X+X+X+X+X:X:X:X/.F.F.F.S.S.A.A.A.J.J.c.i.5.,.' ' ' [ Q Q Q E [ @.W S 8 & ",
"XX[.XXXX+X+X+X+X+X+X+X+X+X+X+X+X+X+X+X+X+X+X+X+X+X+X:X+X:X1X:X:X:X'.P.F.F.S.S.S.S.A.S.A.A.J.J.l.6.5.,.' ' [ { [ Q ` ' ! ! ! S 9 ",
".XXXXX+X+X+X+X+X+X+X:X+X:X:X+X:X:X+X:X:XOX+X:X1X:X+X1X1X:X:X:X:X).L.S.S.S.S.S.K.A.A.A.A.A.A.A.J.c.5.4.] ' [ { [ [ ` ` Q ! ! o.V ",
"XXXX)..X+X+X+X+X:X:X:XOX:X:X+X:X:X+X:X:X:X+X+X:X:X:X:X:X:X:X:XP.S.L.K.K.S.S.S.S.A.A.A.A.A.A.J.J.G.M.a.,.] [ [ Q Q [ ` Q ! ! ! W ",
"XXXXXX+X+X+X+X+X+X+X:X:X.X'./..X:X1X:X1X3X3X1X:X:X:X1X:X:X'.P.K.L.S.S.K.A.A.A.A.A.A.A.A.A.A.J.J.J.G.m.w.' [ [ [ [ [ [ Q Q Q Q o.",
".X.X.X+X+X+X+X:X:X:X:X`.W.P.P.W..X:X:X:X1X1X1X1X:X:X:X:XQ.P.L.K.K.L.K.A.A.J.J.J.A.A.A.A.A.A.J.J.I.x.w.] ' { { [ { [ [ Q Q ! Q o.",
".X.X.X+X+X+X+X+X:X:X'.W.P.P.P.L.P.'.:X:X:X:X:X:X:X:X`.P.K.D.J.K.J.K.K.K.J.J.J.J.J.A.A.A.Z.b.B.I.x.4.' ' ` ` { ` ` Q Q ! E E Q Q ",
"XXXXXX+X+X+X+XOX.X).P.P.P.P.L.L.L.P./.OX:X:X:X1X*XQ.L.K.D.D.K.J.K.J.K.K.J.J.J.J.J.K.A.A.Z.A.M.j.:.] ' ' ` ` ` ` [ [ Q Q Q Q Q { ",
").XXXX1X+X+X+X[.W.P.P.P.P.P.P.P.L.L.L.P.W.1X:X{.W.L.K.K.D.D.J.J.J.J.S.A.A.A.A.J.J.J.J.J.I.G.6.] ' ' ' ' { [ ` ` ` [ [ Q Q Q Q { ",
").`..X:X:X.X).P.P.P.L.P.P.P.P.P.P.K.P.S.L.:X*XD.D.L.D.A.D.D.D.D.J.J.D.A.S.A.A.A.J.J.v.J.M.u.] / ' ' [ { { { ` ` ` [ Q Q Q Q Q W ",
"Q.'.*X-X:XQ.P.L.L.P.L.P.P.P.K.P.P.L.P.K.P.P.A.D.D.D.L.K.D.S.S.S.K.J.S.D.D.A.A.A.J.v.J.M.e.] ' ' ' ' [ [ [ +.[ [ [ [ [ Q Q Q W Q ",
"T.T.-X&XT.L.P.P.L.L.L.L.L.K.K.K.K.P.P.K.T.U.K.D.S.K.D.D.K.K.K.K.K.K.F.D.Z.D.D.A.J.J.M.e.] ] ' ' { { [ +.+.[ [ [ [ Q Q Q Q ! W T ",
"c.v.<XQ.K.L.P.P.L.L.P.L.F.L.L.L.P.K.P.J.T.v.J.D.L.K.K.K.K.J.J.K.J.J.J.D.C.A.A.v.J.G.e.] ' ' ' ' [ { @.+.[ [ [ [ ` Q [ Q Q Q T g ",
"] 4.l.k.C.T.L.L.P.P.L.L.L.L.L.K.K.K.T.T.l.1.1.l.J.G.J.J.J.J.J.J.J.J.G.G.C.G.M.G.M.e.] ] ] ' ' ' ` [ { [ [ [ [ ` Q [ Q Q o.W C u ",
":.4.6.1.8.A.L.L.L.L.L.L.F.S.S.K.J.J.c.l.1.:.:.5.c.G.J.J.J.J.c.M.c.G.G.m.G.J.M.M.e.] ' } ' ' ' ` ` ` [ ` Q { { [ { [ +.Q P h u u ",
"4.4.6.6.2.6.l.L.T.J.T.L.K.K.K.J.J.t.1.5.4.] ,.,.4.x.H.I.N.m.4.t.5.i.M.I.m.x.m.r.] ' { ' ' { ' ` ` ` [ { ` Q Q Q Q Q X.W g u u w ",
"w.w.4.4.6.6.t.k.v.Y.J.J.J.J.I.v.u.4.w.w.} } 0.} ' 0.u.u.u.u.w.w.,.,.y.y.w.} } } } ' { { [ { ` [ [ [ [ Q [ Q Q @.Q T P P i u q w ",
"} w.4.4.4.4.e.4.4.m.I.I.I.I.x.w.w.w.w.#.{ [ { ` ` } #.#.0.w.} } } 0.#.#.{ ' ' } } ` ` { @.[ [ [ [ Q Q Q [ Q X.X.P h u u u u q w ",
"} } w.w.4.w.4.e.e.w.n.N.N.u.w.w.} #.#.#.+.R +.@.@.{ [ { { #.` 0.} #.#.#.{ { { ` [ [ [ [ [ [ [ [ +.Q Q Q Q +.X.C g u u u u w w w ",
"G J K Y ` ' ' ] } } } w.y.' G G G G G G z z Z D D D D D D B m H H H U U H D U Y Y Y Y Y R R Y W U T X.....T P g u u f u u w w w ",
"A A x B F F F A A A F G x x A x x x B B s t s D D N N B B c a N N m m m a t a a h a a a h h a a u u h g g g i u u u w w w q q q ",
"B B B B B A B B A A F A z z B B B B B N t 4 s D Z Z N B D m a N N m m N a t a m m h a h h h a a t 9 u w w w u w q q w w q q 0 0 ",
"N B M M B B B C C C B N m m m N N V V V u 7 p V V V V V V h p j m j j V a 9 p h h a a a p i i i 7 7 u w w q q q q q q 0 0 0 = = ",
"m m M M M B m N C C C C h m C V V V V V u , u S S S V V V h p j j j j j p 9 p h h g g g p i i u q q w w w q q q w q q 0 - & X # ",
"e e r r r y e : : : < 7 7 7 7 7 7 7 6 7 & @ 6 8 8 8 7 7 7 3 ; 6 3 3 6 6 & @ 3 3 6 ; ; ; ; ; & & @ $ * & * * * * * * * & * # . X ",
"p t y y r y 5 > ; ; ; ; & ; ; ; ; ; & & $ + % & $ & & & @ + $ $ % % & & # X # % $ $ @ @ @ @ % # o o O O O O O O o X X X . .     "
};
