/* XPM */
static char *C[] = {
/* columns rows colors chars-per-pixel */
"64 64 215 2 ",
"   c #000000",
".  c #1A0608",
"X  c #0C1F0A",
"o  c #27040B",
"O  c #300B0F",
"+  c #390D12",
"@  c #370D11",
"#  c #20200F",
"$  c #0B200A",
"%  c #410F14",
"&  c #4A1117",
"*  c #5E161E",
"=  c #62171F",
"-  c #4D221B",
";  c #593821",
":  c #6C1922",
">  c #3E6E05",
",  c #43431D",
"<  c #4A471A",
"1  c #445912",
"2  c #456B0D",
"3  c #477A0C",
"4  c #4C6514",
"5  c #477D11",
"6  c #4B7E11",
"7  c #4A7616",
"8  c #537C19",
"9  c #516E13",
"0  c #4E4A23",
"q  c #434325",
"w  c #53482E",
"e  c #615C27",
"r  c #684A26",
"t  c #5F6828",
"y  c #4E4E4E",
"u  c #434343",
"i  c #4E4F51",
"p  c #F33A02",
"a  c #F44A08",
"s  c #F45600",
"d  c #F5550A",
"f  c #F55C15",
"g  c #F45916",
"h  c #F66319",
"j  c #F76B15",
"k  c #F67120",
"l  c #F77B23",
"z  c #F87D23",
"x  c #FE7723",
"c  c #F66B23",
"v  c #3F8304",
"b  c #448405",
"n  c #488A06",
"m  c #46850B",
"M  c #4B850C",
"N  c #4A8C0B",
"B  c #478B08",
"V  c #538D0E",
"C  c #548B0B",
"Z  c #4B930D",
"A  c #4A9A0C",
"S  c #45940B",
"D  c #519B0F",
"F  c #53930E",
"G  c #478211",
"H  c #4E8A14",
"J  c #4C8413",
"K  c #528716",
"L  c #4D9512",
"P  c #4C9B13",
"I  c #539514",
"U  c #539C13",
"Y  c #5B951A",
"T  c #569C19",
"R  c #5B9716",
"E  c #639C15",
"W  c #639C1C",
"Q  c #4FA013",
"!  c #59A115",
"~  c #55A319",
"^  c #5BA41A",
"/  c #56A91A",
"(  c #56A517",
")  c #65AA1E",
"_  c #67A51B",
"`  c #71A81F",
"'  c #5B9C21",
"]  c #609E23",
"[  c #5EA621",
"{  c #6CA522",
"}  c #64AD22",
"|  c #6BAC22",
" . c #6EAC2A",
".. c #64A224",
"X. c #73AC26",
"o. c #6BB225",
"O. c #79B226",
"+. c #7AB52C",
"@. c #7BB734",
"#. c #7BB835",
"$. c #71AF30",
"%. c #7EC139",
"&. c #7DAE5F",
"*. c #918E3E",
"=. c #84B72E",
"-. c #82B92D",
";. c #85BB32",
":. c #89BE34",
">. c #83BE39",
",. c #87B736",
"<. c #91AF3A",
"1. c #FE9F0E",
"2. c #FE9200",
"3. c #FA8D1C",
"4. c #FEA417",
"5. c #D89D3C",
"6. c #F98526",
"7. c #F88C2D",
"8. c #F88528",
"9. c #FC9D2E",
"0. c #FC9627",
"q. c #F99935",
"w. c #FA9936",
"e. c #F48E37",
"r. c #FEA926",
"t. c #FEA52D",
"y. c #FEAA2C",
"u. c #FCA330",
"i. c #FEAE34",
"p. c #F9A23A",
"a. c #FEAE39",
"s. c #FFB335",
"d. c #FEB63B",
"f. c #FFBB39",
"g. c #FFB937",
"h. c #8BC335",
"j. c #8BC834",
"k. c #8CC43B",
"l. c #84C93F",
"z. c #8DC93D",
"x. c #84C137",
"c. c #91C537",
"v. c #92C63B",
"b. c #99C73D",
"n. c #95CA3E",
"m. c #98CC3E",
"M. c #99D13E",
"N. c #95D13D",
"B. c #FFC33B",
"V. c #FEE13E",
"C. c #918F41",
"Z. c #8CBF44",
"A. c #84BA50",
"S. c #B2AD4A",
"D. c #F99A5D",
"F. c #F99A47",
"G. c #FAB144",
"H. c #FEBC4A",
"J. c #F1AD4C",
"K. c #FAB27E",
"L. c #8DC643",
"P. c #86C940",
"I. c #8CCA41",
"U. c #95C641",
"Y. c #96CA40",
"T. c #99CB42",
"R. c #9BCC4C",
"E. c #97C748",
"W. c #96D042",
"Q. c #9BD245",
"!. c #9DD24B",
"~. c #9CCD51",
"^. c #9ED459",
"/. c #A2CD48",
"(. c #A4D14E",
"). c #C9C559",
"_. c #FEC647",
"`. c #FECA49",
"'. c #FFC946",
"]. c #FCCE53",
"[. c #E1D65E",
"{. c #FED353",
"}. c #FEDC59",
"|. c #FED149",
" X c #FEE748",
".X c #FFFA4C",
"XX c #FEE35C",
"oX c #FEE557",
"OX c #FFF55C",
"+X c #FEC562",
"@X c #FEE761",
"#X c #FEEC65",
"$X c #FEF167",
"%X c #FFF46A",
"&X c #FFFE6E",
"*X c #FFFF61",
"=X c #FFFF71",
"-X c #FFFF7A",
";X c #FFF573",
":X c #FAB28A",
">X c #FECE84",
",X c #FECE8A",
"<X c #FED287",
"1X c #FFFF83",
"2X c #FEDFAB",
"3X c #FFEBA6",
"4X c #FFF5B9",
"5X c #FFFCB7",
"6X c #FEE1B7",
"7X c #FFFCC6",
"8X c #FFEED4",
"9X c #FFF7DD",
"0X c #FFF9E8",
"qX c #FFFFFF",
"wX c #FFF9F1",
/* pixels */
"U.b.U./././.T.T./.T.b.T.U.E.~.E.E.E.E.E.R.R.R.R.R.(.(.R.R.R.R.R.R.R.~.E.:.k.!.T.E.!.^.Y.E.!.!.T.!.T.m.M.n.T.m.n.m.Q.T.U.L.R.^.&.",
"W.m.n.M.n.Q.T.T.T.T.T.m.m.T.T.T.W.W.T.m.m.n.m.T.T.Q.T.T.T.T.T.T.T.T.T.T.T.T.T./.R.R.R.!.!.T.T.T.n.Q.m.Q.T.T.T.Q.T.T.T.W.R.R.~.A.",
"N.N.n.N.m.Y.W.T.T.T.W.M.n.M.m.Q.m.m.m.n.m.m.m.n.T.T.T.T.T.T.T.T.T.T.T.T.T.T./.T.R.T.T.R.T.T.T.Q.Q.n.T.T.T.R.T.T.T.T.Q.Q.T.T.!.Z.",
"T.m.m.T.T.T.T.T.T.T.T.T.T.T.T.T.T.T.T.T.T.T.T.T.T.T.T.T.T.T.T.T.T.T.T.T.T.T.T.T.T.T.T.T.T.T.T.T.T.T.T.T.T.T.T.m.m.W.W.m.n.N.Q.L.",
"m.m.m.m.T.T.T.T.T.T.T.T.T.T.T.T.T.T.T.T.T.T.T.T.T.T.T.T.T.T.T.T.T.T.T.T.T.T.T.T.T.T.T.T.T.T.T.T.T.T.T.T.T.T.T.m.m.m.m.m.m.N.Q.k.",
"m.m.m.m.T.T.T.T.T.T.T.T.T.T.T.T.T.T.T.T.T.T.T.T.T.T.T.T.T.T.T.T.T.T.T.T.T.T.T.T.T.T.T.T.T.T.T.T.T.T.T.T.T.T.m.m.m.m.m.m.m.N.Q.l.",
"m.m.m.m.T.T.T.T.T.T.T.T.T.T.T.T.T.T.T.T.m.T.T.T.T.T.T.T.T.T.T.T.T.T.T.T.T.T.T.T.T.T.T.T.T.T.T.T.T.T.T.T.T.T.m.m.m.m.m.m.m.m.M.h.",
"m.m.m.m.T.T.T.T.T.T.T.T.T.T.T.T.T.T.T.T.m.m.T.T.T.T.T.T.T.T.T.T.T.T.T.T.T.T.T.T.T.T.T.T.T.T.T.T.T.T.m.T.T.T.T.m.m.m.m.m.m.m.M.j.",
"m.m.m.m.T.T.T.T.T.T.T.T.T.T.T.T.T.T.T.T.T.T.T.T.T.T.T.T.T.m.T.T.T.T.T.T.n.T.T.T.T.T.T.T.T.T.T.T.n.n.T.T.T.T.T.m.m.m.m.m.m.m.M.j.",
"m.m.m.m.n.T.T.T.T.T.T.T.T.T.T.T.T.T.T.T.T.T.T.T.T.T.T.T.T.T.T.T.T.T.T.T.T.T.T.T.T.T.T.T.T.T.T.T.T.m.T.T.T.T.T.m.m.m.m.m.m.m.M.j.",
"m.m.m.m.n.T.T.T.T.T.T.T.T.T.T.T.& O O O O O O O O O O O O O O O O O O O O O O O O O O O O O * T.T.T.T.T.T.T.T.m.m.m.m.m.m.m.Q.j.",
"m.m.m.m.n.T.T.T.T.T.T.T.T.T.T.T.                                                            o T.T.T.T.T.T.T.T.m.m.m.m.m.m.m.Q.k.",
"m.m.m.m.m.T.T.T.T.T.T.T.T.T.T.T.w 0 0 0 0 0 0 0 0 0 0 0 0 0 0 0 < 0 y i y y y y i w < 0 0 0 ; T.m.m.T.T.T.T.m.m.m.m.m.m.m.m.Q.k.",
"n.n.m.m.m.T.T.T.T.n.n.T.T.T.    [.-X=X=X&X=X&X=X=X&X&X=X=X=X=X=X*X-XqXqXqXqXqXqXqX4X.X=X=X1XS.    m.T.T.T.T.m.m.m.m.m.m.m.m.Q.k.",
"n.n.m.m.m.T.T.T.n.n.n.T.T.T.    ).-X&X&X&X&X&X&X&X&X&X&X&X&X&X&XOX=XqXqXqXqXqXqXqX5X.X&X&X1X*.    m.m.T.T.T.m.m.m.m.m.m.m.m.Q.l.",
"m.m.m.m.m.T.T.T.n.n.n.% + r S.S.e.7.q.q.q.q.q.q.q.q.q.q.q.q.q.q.q.q.D.D.D.D.D.D.D.F.9.q.q.7.5.S.S.- + = T.T.n.n.m.m.m.m.m.m.T.z.",
"m.m.m.m.m.m.m.m.n.n.n.    t 1X=Xx a g g g g g g g g g g g g g g g g s s s s s s s d g g h s p.1X=XX   O m.m.m.m.m.n.T.n.T.T.Q.h.",
"n.n.n.m.m.m.n.n.n.n.n..   e =X$X7.l 6.6.6.6.6.6.6.6.6.6.6.6.6.6.6.6.6.6.6.6.6.6.6.6.7.6.l h p.&X#X#   % m.m.m.T.m.T.m.n.T.n.Q.h.",
"m.m.m.n.n.n.m.m.n.n.n..   e =X#Xf.g.g.g.g.g.g.g.g.g.g.g.g.g.g.g.g.g.g.g.g.g.g.g.g.g.f.g.l g p.&X#X#   % T.T.m.T.n.T.n.m.T.h.Q.>.",
"n.n.n.n.n.n.m.n.m.m.n..   e =X#Xf.y.i.i.i.i.i.g.f.f.y.t.t.t.t.t.t.t.4.4.r.d.i.i.i.i.g.i.l g p.&X#X#   % T.T.m.n.T.T.T.T.T.:.T.+.",
"n.v.n.n.n.m.m.T.n.n.n..   e =X#Xd.t.i.i.i.i.g.u.6.l H.}.{.{.{.{.|.{.2X6X+X4.i.i.i.i.g.i.l g p.&X#X#   % T.T.n.n.T.T.n.T.T.+._ E ",
"v.n.m.m.n.n.n.T.n.n.m..   e =X#Xd.t.i.i.i.g.B.u.g a ].=X%X%X%X%XOX;XqXqX,X2.4.i.i.i.g.i.l g p.&X#X#   % T.n.n.n.n.T.T.Y.l.X.R V ",
"j.n.m.m.n.n.n.n.n.T.T..   e =X#Xd.t.i.i.i.u.u.9.8.l ].%X@X@X@X@XXX#X9X9X<Xi.H.i.i.i.g.i.l g p.&X#X#   % T.T.T.n.T.T.Y.+.R V V M ",
"x.v.m.m.n.n.n.m.n.n.n..   e =X#Xd.t.i.i.g.6.g 7.$X#X@X@X@X@X@X@X@X@XXXV.4XqXwXp.r.i.g.i.l g p.&X#X#   % T.n.T.T.Y.Y.P.#.X.{ R V ",
"+.j.T.n.n.n.n.n.n.T.T..   e =X#Xd.t.i.i.g.l g 7.%X$X#XXX#X&X&X&X&X&XXXV.4XqXqXp.r.i.g.i.l g p.&X#X#   % T.T.T.Y.T.+.E E R R R J ",
"W.W.n.n.T.m.n.T.T.T.T..   e =X#Xd.t.i.i.g.6.g 7.#X#X@X#XXXp.p.p.w.p.XX X4XqXwXp.r.i.g.i.l g p.&X#X#   % T.T.T.T.T.h.{ ..W W Y K ",
"T.n.n.n.T.n.n.n.T.T.T..   e =X#Xd.t.i.i.g.6.g 7.#X#X@X%X}.g d g a h @X.X7XqXqXp.r.i.g.i.l g p.&X#X#   % T.n.h.,.O.X.W R R R V J ",
"Y.Y.T.T.n.n.T.T.T.T.T..   e =X#Xd.t.i.i.g.6.g 7.#X#X@X$X}.l l l k 6.}. X3X9X8Xi.y.i.g.i.l g p.&X#X#   % T.T.>.X.` { { { Y R V 5 ",
"n.n.n.n.n.n.T.T.T.T.T..   e =X#Xd.t.i.i.g.6.g 7.#X#X@X#XXXi.i.i.i.i.i.i.y.y.y.i.i.i.g.i.l g p.&X#X#   % n.T.n.h.=.+.+.X.....V J ",
"T.n.T.T.b.m.T.T.T.T.T..   e =X#Xd.t.i.i.g.6.g 7.#X#X@X#XXXg.i.g.g.g.i.i.y.y.y.i.i.i.g.i.l g p.&X#X#   % m.m.k.=.O.O._ { E E V M ",
"T.T.n.n.m.m.T.T.T.T.T..   e =X#Xd.t.i.i.g.6.g 7.#X#X@X#X}.i.i.i.i.i.i.i.i.i.i.i.i.i.g.i.l g p.&X#X#   % T.n.h.=.O.X._ _ R R V M ",
"n.n.n.n.m.m.T.T.T.T.T..   e =X#Xd.t.i.i.g.6.g 7.#X#X@X#X}.i.i.i.i.i.i.i.y.y.y.i.i.i.g.i.l g p.&X#X#   % n.n.m.Q.n.h.+.{ _ R R C ",
"n.n.n.n.n.n.T.T.T.T.T..   e =X#Xd.t.i.i.g.6.g 7.#X#X@X#XXXi.i.i.i.i.i.i.i.i.i.i.i.i.g.i.l g p.&X#X#   % m.m.n.T.T.Y.+._ _ _ E V ",
"T.n.n.T.T.n.T.T.T.T.T..   e =X#Xd.t.i.i.g.6.g 7.#X#X#X#XXXi.i.i.i.g.}. X3XwX8Xd.r.i.g.i.l g p.&X#X#   % n.n.n.n.T.T.x.O.X.O.{ R ",
"T.n.n.n.n.n.T.T.T.T.T..   e =X#Xd.t.i.i.g.6.g 7.#X#X#X#X}.t.9.t.0.t.#X X7XqXqXi.r.i.g.i.l g p.&X#X#   % n.n.m.T.n.z.n.I.+.#.X.E ",
"m.n.n.n.n.n.T.T.T.T.T..   e =X#Xd.t.i.i.g.6.g 7.#X#X@X#XXX`.`.`._.`.XX X4XqXwXp.r.i.g.i.l g p.&X#X#   % n.n.n.n.n.n.T.T.,.+.X.F ",
"m.m.n.n.n.n.T.T.T.T.T..   e =X#Xd.t.i.i.g.l g 7.%X$X#XXX#X%X%X%X%X%XXXV.4XqXqXp.r.i.g.i.l g p.&X#X#   % n.n.n.n.n.n.Y.T.h.;.,.E ",
"n.n.n.n.n.n.T.T.T.T.T..   e =X#Xd.t.i.i.g.6.g 7.#X#X#X@X@X@X@X@X@X@XXX X4XqXwXg.r.i.g.i.l g p.&X#X#   % n.n.n.n.v.v.m.T.h.x.;.E ",
"n.n.n.n.n.n.T.T.T.T.T..   e =X#Xd.t.i.i.i.u.i.9.8.k ].%X@X@X@X@XoX#X0X0XK.c e.i.g.i.g.i.l g p.&X#X#   % n.n.n.v.n.v.n.n.:.;.=.E ",
"n.n.n.n.n.n.T.T.T.T.b..   e =X#Xd.t.i.i.i.g.B.u.g a {.-X&X&X&X&XOX=XqXqX:Xp f i.g.i.g.i.l g p.&X#X#   % n.n.n.v.n.v.n.n.;.;.,.E ",
"n.n.n.n.n.n.T.T.T.n.b..   e =X#Xd.t.i.i.i.i.g.i.7.6.p.G.G.G.G.G.d.G.:X:XF.3.0.i.i.i.g.i.l g p.&X#X#   % n.n.n.v.n.v.m.n.:.;.-.E ",
"n.n.n.n.n.n.n.n.b.b.b..   e =X#Xf.y.i.i.i.i.i.g.f.B.k d g g g g f g s s 3.'.g.i.i.i.g.i.l g p.&X#X#   % n.n.n.n.n.v.v.n.:.-.=.E ",
"m.m.m.m.n.n.n.n.b.b.b..   e =X#Xd.t.i.i.i.i.i.i.i.g.l h k k k k c c k h 0.g.i.i.i.i.g.i.l g p.&X#X#   % Y.n.n.n.n.v.n.n.:.,.;.E ",
"v.m.m.m.n.n.n.n.b.b.b..   e =X#Xd.t.i.i.i.i.i.i.i.i.u.9.u.u.u.u.u.u.u.9.i.g.i.i.i.i.g.i.l g p.&X#X#   % Y.n.n.n.n.n.n.T.:.;.;._ ",
"m.n.n.n.n.n.n.n.n.n.n.    t 1X-Xg.0.t.t.t.t.t.t.t.t.y.y.y.y.y.y.i.y.4.4.4.1.1.1.1.4.u.t.h p p.1X-X$   O n.n.n.n.n.n.n.n.;.;.;.E ",
"m.n.n.n.n.n.n.n.n.n.n.T.T.<.C.*.J.`._._._._._._._._._._._._._._._._.>X>X>X>X>X>X,X+XB._.p.w.5.C.*.- & : n.n.v.v.v.v.n.n.:.=.;.E ",
"m.m.n.n.n.n.n.n.n.n.n.n.b.<.    ).-X%X%X%X%X%X%X%X%X%X%X%X%X%X%XOX;XqXqXqXqXqXqXqX5X X%X&X1X*.    n.n.n.n.v.v.v.v.n.n.T.:.=.,.E ",
"v.v.v.m.n.b.b.n.n.n.n.b.b.b.    [.-X&X&X&X&X&X&X&X&X&X&X&X&X&X&X*X=XqXqXqXqXqXqXqX5X.X&X&X1XS.    n.n.v.v.v.v.v.v.v.v.h.+.+.,.E ",
"v.v.n.n.n.m.m.n.n.m.v.v.v.n.n.n.; q , , , , , , , , , , , , , , , , u u u u u u u q , , , q ; n.n.n.v.v.n.v.v.v.v.n.h.:.` +.;.W ",
"h.k.n.v.n.n.m.m.m.m.m.v.n.n.n.n.                                                            o n.n.n.v.v.v.k.v.n.n.n.k.>._ X.+.W ",
"` +.j.v.m.m.v.v.v.n.m.n.n.n.n.n.& + + + + + + + + + + + + + + + + + + + + + + + + + + + + @ = n.n.n.v.v.v.v.n.k.k.h.h.k.+._ W R ",
"` O.j.n.v.v.v.m.m.m.n.n.n.n.n.n.b.b.b.n.n.n.n.n.T.n.n.v.n.n.v.n.n.n.n.n.n.n.n.v.n.n.n.v.v.v.v.v.v.n.n.v.n.n.k.+.O.O.+.#.X.{ { Y ",
"` O.h.j.c.v.m.m.n.n.n.n.n.n.n.n.b.n.n.n.n.n.n.n.n.n.n.n.n.n.n.n.n.n.n.n.n.n.n.v.n.n.n.v.v.v.v.v.v.v.n.k.k.n.k.O.X.+.+.>.@.@.@.W ",
"_ ` x.j.k.c.c.c.c.v.v.b.n.n.n.n.b.b.b.b.n.n.b.b.v.n.n.T.n.v.n.n.v.v.n.v.k.v.v.v.v.v.v.k.v.v.v.v.v.v.k.k.h.k.k.+.` X.X. .Y ] ..K ",
"! _ +.x.h.k.k.c.v.h.v.b.n.b.n.n.v.n.v.n.b.v.n.n.h.n.n.Y.k.;.h.n.n.n.:.k.k.v.k.k.k.n.n.n.n.n.k.n.n.h.k.I.k.>.>.X.| +.+.@...Y V J ",
") ) +.x.k.z.z.n.:.h.U.U.U.v.b.v.c.m.c.v.v.h.U.k.,.U.:.k.k.#.k.L.L.k.X.;.L.k.v.v.v.n.k.k.n.v.Z.Z.E.,.@.>.#.@.#. ...$.@.@.W V Y H ",
"^ ^ } ) ) o.| | _ X.Y.I.z.k.z.I.z.z.z.I.x.%.P.x.+.P.P.P.l.+.%.P.l.%._ +.I.z.I.z.l.z.l.l.l.l.L.L.L.+. .#.x.@.@...Y ......I N V m ",
"S S P A A U U R D R | _ _ ^ ) ) ) ) o.o./ U [ [ ^ } } } } ^ ^ ^ ! / U ^ } | | } ) } | | | |  . . .Y _ ..Y Y Y ] ] ] Y Y I I K m ",
"L P P P P U P ! U U ^ ~ ( ~ / ( ( / / / ~ S L P ( / / / / / A A P Q P P U U ! ! ! ! ^ ( D U U U T A I Y N B m M H H G G M G G 3 ",
"N L T ^ T ! U ! U ^ } / / / / Q ( / ~ ~ ~ Z L S A ~ / ( ( ( S A U P S L ! U ! ^ ! U ! U U ! ^ R R Z T ' H H H H H H H H H K 5 3 ",
"b V I I N Z Z N n N F A D U A S A ( ! / T n L Z A / / / U ~ Z A T ^ Z Z ^ ^ ^ ^ R U ! U D I U I I n I ' m m G J J J 5 6 5 K 5 5 ",
"M I Y R I I F F Z N U ! U U D Z Z Z Z L Z b N m n Z A Z Z L B Z N I N M Y I I I I I I A Z T T T I N K Y H J J K K 8 K 8 8 8 7 7 ",
"3 M V V M M b b b b N Z n n n b b n n M m b M 3 b B N b B N b m b m 3 3 H N m m b b v b b m b b m 3 5 6 3 > 2 2 2 2 2 2 7 7 7 7 ",
"6 K K K 6 K 6 6 6 6 K V K K K 6 6 J 6 6 6 6 6 3 3 5 5 3 6 3 3 5 3 8 7 7 K J J J J J 3 3 5 J 5 5 6 3 8 8 4 4 4 4 4 4 4 1 4 4 1 1 "
};
