/* XPM */
static char *E[] = {
/* columns rows colors chars-per-pixel */
"64 64 187 2 ",
"   c #120A13",
".  c #1D0B14",
"X  c #15151B",
"o  c #1A161D",
"O  c #1B181E",
"+  c #141117",
"@  c #0E070B",
"#  c #210F19",
"$  c #25121E",
"%  c #2A111B",
"&  c #1F1E25",
"*  c #1F1828",
"=  c #221E25",
"-  c #231929",
";  c #2C1B2D",
":  c #291521",
">  c #321B2E",
",  c #341823",
"<  c #371C30",
"1  c #3D1C31",
"2  c #222129",
"3  c #2A232B",
"4  c #2D2D36",
"5  c #382A34",
"6  c #35323A",
"7  c #421D33",
"8  c #4C1F36",
"9  c #551F38",
"0  c #5A1F30",
"q  c #451A26",
"w  c #4D2D3E",
"e  c #5B203A",
"r  c #62213C",
"t  c #69223E",
"y  c #353541",
"u  c #433642",
"i  c #503B4A",
"p  c #6F2341",
"a  c #762443",
"s  c #7D2545",
"d  c #544959",
"f  c #724557",
"g  c #674D5C",
"h  c #544A61",
"j  c #4E5462",
"k  c #545364",
"l  c #535A66",
"z  c #5D586D",
"x  c #6C4762",
"c  c #62556B",
"v  c #68566E",
"b  c #745A69",
"n  c #645F71",
"m  c #715C74",
"M  c #5B606E",
"N  c #5D6575",
"B  c #67687A",
"V  c #79667D",
"C  c #842647",
"Z  c #8B274A",
"A  c #91294C",
"S  c #982A4E",
"D  c #9E2C51",
"F  c #A42E53",
"G  c #AA2F56",
"H  c #A63156",
"J  c #AB3157",
"K  c #A73558",
"L  c #AE395F",
"P  c #AC3359",
"I  c #B3325A",
"U  c #BB365E",
"Y  c #B3395F",
"T  c #BC385F",
"R  c #AE3E62",
"E  c #BA3C62",
"W  c #C23A62",
"Q  c #C83D66",
"!  c #814F6A",
"~  c #944E6E",
"^  c #88506E",
"/  c #96516F",
"(  c #855C76",
")  c #915A76",
"_  c #B44165",
"`  c #B14668",
"'  c #BE4569",
"]  c #B3496B",
"[  c #BB4A6D",
"{  c #A74F70",
"}  c #BB4F70",
"|  c #B95777",
" . c #A35B74",
".. c #93617B",
"X. c #AB687E",
"o. c #B3617E",
"O. c #C5466B",
"+. c #CD426A",
"@. c #C5496E",
"#. c #D2466E",
"$. c #D0486F",
"%. c #CB4D72",
"&. c #C14F72",
"*. c #D54C73",
"=. c #C4597B",
"-. c #CA5578",
";. c #D75177",
":. c #D85277",
">. c #DA567B",
",. c #D35A7D",
"<. c #DB5B7E",
"1. c #D2567A",
"2. c #6E6F80",
"3. c #776E85",
"4. c #7A6D84",
"5. c #6E7085",
"6. c #6E768A",
"7. c #7D7286",
"8. c #7B7189",
"9. c #737B8B",
"0. c #747289",
"q. c #8A6A81",
"w. c #966C87",
"e. c #9B7089",
"r. c #9A7082",
"t. c #A96680",
"y. c #BE6583",
"u. c #B76984",
"i. c #A57C8D",
"p. c #A8778B",
"a. c #B67D92",
"s. c #DB5E81",
"d. c #C26583",
"f. c #C26D89",
"g. c #CA6785",
"h. c #DB6384",
"j. c #DB6B8A",
"k. c #D56A89",
"l. c #C2718B",
"z. c #DB708D",
"x. c #C37B94",
"c. c #C07591",
"v. c #DB7691",
"b. c #D47A95",
"n. c #DB7B95",
"m. c #DE7E98",
"M. c #D17692",
"N. c #E0718F",
"B. c #E27F9A",
"V. c #96828F",
"C. c #84899D",
"Z. c #968698",
"A. c #A68293",
"S. c #B58C9A",
"D. c #BA869A",
"F. c #9E93A5",
"G. c #BA9BAE",
"H. c #C0889F",
"J. c #DB849B",
"K. c #E2829D",
"L. c #CD8DA4",
"P. c #DB8DA1",
"I. c #D989A3",
"U. c #DB93A5",
"Y. c #DD94AB",
"T. c #DB9CAB",
"R. c #D097AB",
"E. c #CB9EB1",
"W. c #CF99AF",
"Q. c #E386A0",
"!. c #E091A9",
"~. c #E89BB1",
"^. c #E49CB2",
"/. c #DBA4B1",
"(. c #DBAAB5",
"). c #DBAFB8",
"_. c #D4A6B9",
"`. c #DBB5BC",
"'. c #DBBABF",
"]. c #E0A0B7",
"[. c #DBBFC3",
"{. c #E5BDCF",
"}. c #DBC4C6",
"|. c #DBCACB",
" X c #DBD0CE",
".X c #DBD6D2",
"XX c #DBDAD5",
/* pixels */
"* * * * * * * * * * * * * * * * * * * * * * * * * * * * * * * * * * * * * * * * * * * * * * * * * * * * * * * * * * * * * * * * ",
"- - - - - - - - - - - - - - - - - - - - - - - - - - - - - - - - - - - - - - - - - - - - - - - - - - - - - - - - - - - - - - - - ",
"- - - - - - - - - - - - - - - - - - - - - - - - - - - - - - - - - - - - - - - - - - - - - - - - - - - - - - - - - - - - - - - - ",
"; ; ; ; ; ; ; ; ; ; ; ; ; ; ; ; ; ; ; ; ; ; ; ; ; ; ; ; ; ; ; ; ; ; ; ; ; ; ; ; ; ; ; ; ; ; ; ; ; ; ; ; ; ; ; ; ; ; ; ; ; ; ; ; ",
"; ; ; ; ; ; ; ; ; ; ; ; ; ; ; ; ; ; ; ; ; ; ; ; ; ; ; ; ; ; ; ; ; ; ; ; ; ; ; ; ; ; ; ; ; ; ; ; ; ; ; ; ; ; ; ; ; ; ; ; ; ; ; ; ",
"> > > > > > > > > > > > > > > > > > > > > > > > > > > > > > > > > > > > > > > > > > > > > > > > > > > > > > > > > > > > > > > > ",
"< < < < < < < < < < < < < < < < < < < < < < < < < < < < < < < < < < < < < < < < < < < < < < < < < < < < < < < < < < < < < < < < ",
"1 1 1 1 1 1 1 1 1 1 1 1 1 1 1 1 1 1 1 1 1 1 1 1 1 1 1 1 1 1 1 1 1 1 1 1 1 1 1 1 1 1 1 1 1 1 1 1 1 1 1 1 1 1 1 1 1 1 1 1 1 1 1 1 ",
"7 7 7 7 7 7 7 7 7 7 7 7 7 7 7 7 7 7 7 7 7 7 7 7 7 7 7 7 7 7 7 7 7 7 7 7 7 7 7 7 7 7 7 7 7 7 7 7 7 7 7 7 7 7 7 7 7 7 7 7 7 7 7 7 ",
"8 8 8 8 8 8 8 8 8 8 8 8 8 8 8 8 8 8 8 8 8 8 8 8 8 8 8 8 8 8 8 8 8 8 8 8 8 8 8 8 8 8 8 8 8 8 8 8 8 8 8 8 8 8 8 8 8 8 8 8 8 8 8 8 ",
"8 8 8 8 8 8 8 8 8 8 8 8 8 8 8 8 8 8 8 8 8 8 8 8 8 8 8 8 8 8 8 8 8 8 8 8 8 8 8 8 8 8 8 8 8 8 8 8 8 8 8 8 8 8 8 8 8 8 8 8 8 8 8 8 ",
"9 9 9 9 9 9 9 9 9 9 9 9 9 9 9 9 9 9 9 9 9 9 9 9 9 9 9 9 9 9 9 9 9 9 9 9 9 9 9 9 9 9 9 9 9 9 9 9 9 9 9 9 9 9 9 9 9 9 9 9 9 9 9 9 ",
"e e e e e e e e e e e e e e e e e e e e e e e e e e e e e e e e e e e e e e e e e e e e e e e e e e e e e e e e e e e e e e e e ",
"r r r r r r r r r r r r r r r r r r r r r r r r r r r r r r r r r r r r r r r r r r r r r r r r r r r r r r r r r r r r r r r r ",
"t t t t t t t t t t t t t t t t t t t t t t t t t t t t t t t t t t t t t t t t t t t t t t t t t t t t t t t t t t t t t t t t ",
"p p p p p p p p p p p p p p p p p p p p p p p p p p p p p p p p p p p p p p p p p p p p p p p p p p p p p p p p p p p p p p p p ",
"a a a a a a a a a a a a a a a a a a a a a a a a a a a a a a a a a a a a a a a a a a a a a a a a a a a a a a a a a a a a a a a a ",
"s s s s s s s s s s s s s s s s s s s s s s s s s s s s s s s s s s s s s s s s s s s s s s s s s s s s s s s s s s s s s s s s ",
"C C C C C C C C C C C C C C C C C C C C C C C C C C C C C C C C C C C C C C C C C C C C C C C C C C C C C C C C C C C C C C C C ",
"Z Z Z Z Z Z Z Z Z Z Z Z Z Z Z Z Z Z Z Z Z Z Z Z Z Z Z Z Z Z Z Z Z Z Z Z Z Z Z Z Z Z Z Z Z Z Z Z Z Z Z Z Z Z Z Z Z Z Z Z Z Z Z Z ",
"A A A A A A A A A A A A A A A A A A A A A A A A A A A A A A A A A A A A A A A A A A A A A A A A A A A A A A A A A A A A A A A A ",
"S S S S S S S S S S S S S S S S S S S S S S S S S S S S S S S S S S S S S S S S S S S S S S S S S S S S S S S S S S S S S S S S ",
"D D D D D D D D D D D D D D D D D D D D D D D D D D D D D D D D D D D D D D D D D D D D D D D D D D D D D D D D D D D D D D D D ",
"F F F F F F F F F F F F F F F F F F F F F F F F H H K K K K K K K K K K K K K H H F F F F F F F F F F F F F F F F F F F F F F F ",
"G G G G G G G G G G G G G G G G G G G G G J J P L R ` ] ] ] ] ] ] ] ` ` ` ` _ _ L P J J G G G G G G G G G G G G G G G G G G G G ",
"I I I I I I I I I I I I I I I I I I I I I I Y _ ] { y.f.f.l.l.l.l.u.o.u.u.o.o.d.} _ Y I I I I P I I I I I I I I I I I I I I I I ",
"I I I I I I I I I I I I I I I I I I I I E _ [ | { ~ ) ..e.e.e.e.e.e.w.e.e.( ..c.d.| [ ' E E I I I I I I I I I I I I I I I I I I ",
"T T T T T T T T T T T T T T T T T T E ' &.| y.c.) x c c 3.8.3.3.4.7.8.8.8.z m G.H.u.f.g.=.O.E T T T T T T T T T T T T T T T T T ",
"W W W W W W W W W W W W W W W W W W O.-.| / ..q.V V B 5.C.C.C.C.C.C.C.C.C.5.B 7.q.( p.L.b.g.@.W W W W W W W W W W W W W W W W W ",
"W W W W W W W W W W W W W W W W W O.-.d.t.x v c n B N N 9.9.9.9.9.9.9.9.9.B M z z h 7.G.R.J.,.O.W W W W W W W W W W W W W W W W ",
"Q Q Q Q Q Q Q Q Q Q Q Q Q W Q Q +.%.=.~ ( 4.0.9.6 o 2 2 2 - 2 2 2 2 2 2 2 O 4 6.9.6.2.c A.L.k.%.+.Q Q Q Q Q Q Q Q Q Q Q Q Q Q Q ",
"+.+.+.+.+.+.+.+.+.+.+.+.+.+.+.+.+.-.y.^ v k k l 2 + O O o o o o o O o o o X 2 j l j l k Z.W.b.1.+.+.+.+.+.+.+.+.+.+.+.+.+.+.+.+.",
"+.+.+.+.+.+.+.+.+.+.+.+.+.+.+.+.$.-.f.w.d   o X & - = = & & & & & & & & & & & o o @ y 5.F.E.m.,.*.+.+.+.+.+.+.+.+.+.+.+.+.+.+.+.",
"#.#.#.#.#.#.#.#.#.#.#.#.#.#.#.#.*.,.f.! i o & & = = & & & & & & & & & & & & & & = X 4 d Z._.m.s.*.#.#.#.#.#.#.#.#.#.#.#.#.#.#.#.",
"*.*.*.*.*.*.*.*.*.*.*.*.*.*.*.*.*.,.| 0 % 5 = = = = & & & & & & & & & & & & = = = 3 o @ b W.n.s.*.*.*.*.*.*.*.*.*.*.*.*.*.*.*.*.",
"*.*.*.*.*.*.*.*.*.*.*.*.*.*.*.*.;.<.k. .f , 3 = = = & & & & & & & & & & & & = = = o u b D.Y.z.<.;.*.*.*.*.*.*.*.*.*.*.*.*.*.*.*.",
":.:.:.:.:.:.:.:.:.:.:.:.:.:.:.:.>.<.j.Q.X.q : . = 2 = = = = = = = = = = = 2 =   . . g {.^.B.h.<.>.:.:.:.:.:.:.:.:.:.:.:.:.:.:.:.",
">.>.>.>.>.>.>.>.>.>.>.>.>.>.>.>.>.<.h.j.M.t.p.A.i : 3 = = = = = = = = = = o 5 V.A.r.D.^.K.j.s.<.>.>.>.>.>.>.>.>.>.>.>.>.>.>.>.>.",
"<.<.<.<.<.<.<.<.<.<.<.<.<.<.<.<.<.<.s.h.v.n.P.].f , : $ $ $ # # # # # $ $ % w )./.I.P.K.N.h.s.<.<.<.<.<.<.<.<.<.<.<.<.<.<.<.<.<.",
"h.h.h.h.h.h.h.h.h.h.h.h.h.h.h.h.h.h.h.h.j.j.v.K.c.p.p.i.i.A.S.S.S.S.S.A.i.p.a.Y.K.v.v.j.j.h.h.h.h.h.h.h.h.h.h.h.h.h.h.h.h.h.h.h.",
"h.h.h.h.h.h.h.h.h.h.h.h.h.h.h.h.h.h.h.h.h.j.j.v.m.J.P.Y.P.Y.~.~.~.~.~.Y.P.P.I.K.v.j.j.j.h.h.h.h.h.h.h.h.h.h.h.h.h.h.h.h.h.h.h.h.",
"j.j.j.j.j.j.j.j.j.j.j.j.j.j.j.j.j.j.j.j.j.j.j.j.z.n.n.n.n.m.m.m.m.m.m.m.n.n.n.v.j.j.j.j.j.j.j.j.j.j.j.j.j.j.j.j.j.j.j.j.j.j.j.j.",
"z.z.z.z.z.z.z.z.z.z.z.z.z.z.z.z.z.z.z.z.z.z.z.z.z.z.v.v.v.v.v.v.v.v.v.v.v.v.z.z.z.z.z.z.z.z.z.z.z.z.z.z.z.z.z.z.z.z.z.z.z.z.z.z.",
"v.v.v.v.v.v.v.v.v.v.v.v.v.v.v.v.v.v.v.v.v.v.v.v.v.v.v.v.v.v.v.v.v.v.v.v.v.v.v.v.v.v.v.v.v.v.v.v.v.v.v.v.v.v.v.v.v.v.v.v.v.v.v.v.",
"n.n.n.n.n.n.n.n.n.n.n.n.n.n.n.n.n.n.n.n.n.n.n.n.n.n.n.n.n.n.n.n.n.n.n.n.n.n.n.n.n.n.n.n.n.n.n.n.n.n.n.n.n.n.n.n.n.n.n.n.n.n.n.n.",
"J.J.J.J.J.J.J.J.J.J.J.J.J.J.J.J.J.J.J.J.J.J.J.J.J.J.J.J.J.J.J.J.J.J.J.J.J.J.J.J.J.J.J.J.J.J.J.J.J.J.J.J.J.J.J.J.J.J.J.J.J.J.J.J.",
"J.J.J.J.J.J.J.J.J.J.J.J.J.J.J.J.J.J.J.J.J.J.J.J.J.J.J.J.J.J.J.J.J.J.J.J.J.J.J.J.J.J.J.J.J.J.J.J.J.J.J.J.J.J.J.J.J.J.J.J.J.J.J.J.",
"P.P.P.P.P.P.P.P.P.P.P.P.P.P.P.P.P.P.P.P.P.P.P.P.P.P.P.P.P.P.P.P.P.P.P.P.P.P.P.P.P.P.P.P.P.P.P.P.P.P.P.P.P.P.P.P.P.P.P.P.P.P.P.P.",
"U.U.U.U.U.U.U.U.U.U.U.U.U.U.U.U.U.U.U.U.U.U.U.U.U.U.U.U.U.U.U.U.U.U.U.U.U.U.U.U.U.U.U.U.U.U.U.U.U.U.U.U.U.U.U.U.U.U.U.U.U.U.U.U.",
"T.T.T.T.T.T.T.T.T.T.T.T.T.T.T.T.T.T.T.T.T.T.T.T.T.T.T.T.T.T.T.T.T.T.T.T.T.T.T.T.T.T.T.T.T.T.T.T.T.T.T.T.T.T.T.T.T.T.T.T.T.T.T.T.",
"T.T.T.T.T.T.T.T.T.T.T.T.T.T.T.T.T.T.T.T.T.T.T.T.T.T.T.T.T.T.T.T.T.T.T.T.T.T.T.T.T.T.T.T.T.T.T.T.T.T.T.T.T.T.T.T.T.T.T.T.T.T.T.T.",
"/./././././././././././././././././././././././././././././././././././././././././././././././././././././././././././././././.",
"(.(.(.(.(.(.(.(.(.(.(.(.(.(.(.(.(.(.(.(.(.(.(.(.(.(.(.(.(.(.(.(.(.(.(.(.(.(.(.(.(.(.(.(.(.(.(.(.(.(.(.(.(.(.(.(.(.(.(.(.(.(.(.(.",
").).).).).).).).).).).).).).).).).).).).).).).).).).).).).).).).).).).).).).).).).).).).).).).).).).).).).).).).).).).).).).).).",
"`.`.`.`.`.`.`.`.`.`.`.`.`.`.`.`.`.`.`.`.`.`.`.`.`.`.`.`.`.`.`.`.`.`.`.`.`.`.`.`.`.`.`.`.`.`.`.`.`.`.`.`.`.`.`.`.`.`.`.`.`.`.`.`.",
"'.'.'.'.'.'.'.'.'.'.'.'.'.'.'.'.'.'.'.'.'.'.'.'.'.'.'.'.'.'.'.'.'.'.'.'.'.'.'.'.'.'.'.'.'.'.'.'.'.'.'.'.'.'.'.'.'.'.'.'.'.'.'.'.",
"[.[.[.[.[.[.[.[.[.[.[.[.[.[.[.[.[.[.[.[.[.[.[.[.[.[.[.[.[.[.[.[.[.[.[.[.[.[.[.[.[.[.[.[.[.[.[.[.[.[.[.[.[.[.[.[.[.[.[.[.[.[.[.[.",
"}.}.}.}.}.}.}.}.}.}.}.}.}.}.}.}.}.}.}.}.}.}.}.}.}.}.}.}.}.}.}.}.}.}.}.}.}.}.}.}.}.}.}.}.}.}.}.}.}.}.}.}.}.}.}.}.}.}.}.}.}.}.}.}.",
"|.|.|.|.|.|.|.|.|.|.|.|.|.|.|.|.|.|.|.|.|.|.|.|.|.|.|.|.|.|.|.|.|.|.|.|.|.|.|.|.|.|.|.|.|.|.|.|.|.|.|.|.|.|.|.|.|.|.|.|.|.|.|.|.",
"|.|.|.|.|.|.|.|.|.|.|.|.|.|.|.|.|.|.|.|.|.|.|.|.|.|.|.|.|.|.|.|.|.|.|.|.|.|.|.|.|.|.|.|.|.|.|.|.|.|.|.|.|.|.|.|.|.|.|.|.|.|.|.|.",
" X X X X X X X X X X X X X X X X X X X X X X X X X X X X X X X X X X X X X X X X X X X X X X X X X X X X X X X X X X X X X X X X",
".X.X.X.X.X.X.X.X.X.X.X.X.X.X.X.X.X.X.X.X.X.X.X.X.X.X.X.X.X.X.X.X.X.X.X.X.X.X.X.X.X.X.X.X.X.X.X.X.X.X.X.X.X.X.X.X.X.X.X.X.X.X.X.X",
".X.X.X.X.X.X.X.X.X.X.X.X.X.X.X.X.X.X.X.X.X.X.X.X.X.X.X.X.X.X.X.X.X.X.X.X.X.X.X.X.X.X.X.X.X.X.X.X.X.X.X.X.X.X.X.X.X.X.X.X.X.X.X.X",
"XXXXXXXXXXXXXXXXXXXXXXXXXXXXXXXXXXXXXXXXXXXXXXXXXXXXXXXXXXXXXXXXXXXXXXXXXXXXXXXXXXXXXXXXXXXXXXXXXXXXXXXXXXXXXXXXXXXXXXXXXXXXXXXX"
};
