/* XPM */
static char *P[] = {
/* columns rows colors chars-per-pixel */
"64 64 224 2 ",
"   c None",
".  c #190B04",
"X  c #1F1213",
"o  c #140A0A",
"O  c #220C07",
"+  c #24140C",
"@  c #2B160B",
"#  c #2D1A0D",
"$  c #22190C",
"%  c #3B190D",
"&  c #391508",
"*  c #261A14",
"=  c #2C1B13",
"-  c #2C1D1A",
";  c #251816",
":  c #321C15",
">  c #321E1B",
",  c #391A11",
"<  c #2E221C",
"1  c #33251E",
"2  c #3B2419",
"3  c #342613",
"4  c #1E1034",
"5  c #190D2F",
"6  c #2B1927",
"7  c #301A30",
"8  c #342423",
"9  c #352829",
"0  c #382829",
"q  c #3D3229",
"w  c #3A2A36",
"e  c #421D12",
"r  c #4E1F11",
"t  c #451907",
"y  c #7F1108",
"u  c #452214",
"i  c #4C2A1C",
"p  c #47241A",
"a  c #522C19",
"s  c #5C2814",
"d  c #52321D",
"f  c #652A14",
"g  c #69341C",
"h  c #753A1F",
"j  c #7D2A12",
"k  c #4C2B22",
"l  c #442A25",
"z  c #512C22",
"x  c #43352D",
"c  c #4A362A",
"v  c #543125",
"b  c #533B2A",
"n  c #583927",
"m  c #402C31",
"M  c #4B3B34",
"N  c #4A3D3A",
"B  c #453633",
"V  c #5D3B3A",
"C  c #5A3730",
"Z  c #67372A",
"A  c #763D22",
"S  c #663D35",
"D  c #683836",
"F  c #733E34",
"G  c #59452C",
"H  c #594634",
"J  c #4F4038",
"K  c #664F2E",
"L  c #76432D",
"P  c #7C432D",
"I  c #684636",
"U  c #754233",
"Y  c #7C4533",
"T  c #73443C",
"R  c #7D4B3B",
"E  c #7B453A",
"W  c #6D5D3D",
"Q  c #685436",
"!  c #725E3E",
"~  c #765838",
"^  c #73623E",
"/  c #7A633D",
"(  c #361B48",
")  c #370051",
"_  c #330D48",
"`  c #3D3A45",
"'  c #3E225F",
"]  c #2F1966",
"[  c #450559",
"{  c #550C5F",
"}  c #443C48",
"|  c #5C365D",
" . c #542F47",
".. c #6A3A45",
"X. c #683E5A",
"o. c #713942",
"O. c #460761",
"+. c #54086B",
"@. c #510866",
"#. c #570B72",
"$. c #501572",
"%. c #640A7A",
"&. c #6D157C",
"*. c #6C1473",
"=. c #70117C",
"-. c #4C2C65",
";. c #68297E",
":. c #73237B",
">. c #43424B",
",. c #514343",
"<. c #5D4B42",
"1. c #574649",
"2. c #494457",
"3. c #51445A",
"4. c #624E43",
"5. c #684647",
"6. c #7C4A42",
"7. c #794843",
"8. c #65524E",
"9. c #67524C",
"0. c #775C41",
"q. c #784B51",
"w. c #6A5554",
"e. c #624D50",
"r. c #736440",
"t. c #7B6442",
"y. c #796A46",
"u. c #4C4A6B",
"i. c #4D4A66",
"p. c #534C68",
"a. c #51516E",
"s. c #4E4E73",
"d. c #545373",
"f. c #585374",
"g. c #736167",
"h. c #851C0E",
"j. c #800E07",
"k. c #854827",
"l. c #93482B",
"z. c #824D35",
"x. c #834D3C",
"c. c #854939",
"v. c #865339",
"b. c #97573F",
"n. c #8E6B3F",
"m. c #BC6A37",
"M. c #C66E2E",
"N. c #CE712E",
"B. c #C46D32",
"V. c #CA6F35",
"C. c #CC7333",
"Z. c #CA7738",
"A. c #D1722F",
"S. c #833F46",
"D. c #8B4B43",
"F. c #854645",
"G. c #845244",
"H. c #885647",
"J. c #985849",
"K. c #974A52",
"L. c #825858",
"P. c #945650",
"I. c #A35D4A",
"U. c #A45E53",
"Y. c #846B43",
"T. c #8A6946",
"R. c #976B45",
"E. c #8B7346",
"W. c #9A7847",
"Q. c #8E6159",
"!. c #A9614E",
"~. c #B46D47",
"^. c #A87D4A",
"/. c #B77248",
"(. c #AE6952",
"). c #A86555",
"_. c #B46C53",
"`. c #BC7455",
"'. c #BB7658",
"]. c #BE7E65",
"[. c #C87441",
"{. c #CA7E5E",
"}. c #C16D40",
"|. c #C67C62",
" X c #B28A58",
".X c #AB804F",
"XX c #C7875B",
"oX c #D8975B",
"OX c #CB8955",
"+X c #CD8461",
"@X c #CB8B66",
"#X c #D28663",
"$X c #D38863",
"%X c #CA9465",
"&X c #D6986A",
"*X c #DA9C72",
"=X c #D18C72",
"-X c #DBA26B",
";X c #DDA474",
":X c #DCAF7E",
">X c #D8A97B",
",X c #E2AC77",
"<X c #E5AB79",
"1X c #E6B17B",
"2X c #E1A06E",
"3X c #5B168A",
"4X c #4E0897",
"5X c #6E0E85",
"6X c #6E0C89",
"7X c #700E86",
"8X c #710E89",
"9X c #731A89",
"0X c #6E1083",
"qX c #5F2082",
"wX c #632388",
"eX c #D6A88B",
"rX c #D8AB87",
"tX c #DCB183",
"yX c #E1AE8F",
"uX c #E4B682",
"iX c #E6B983",
"pX c #E9BB83",
"aX c #EAB987",
"sX c #ECC089",
/* pixels */
"                                                                                                                                ",
"                                                                                                                                ",
"                                                                                                                                ",
"                                                                                                                                ",
"                                                                                                                                ",
"                                                                                                                                ",
"                                                                                                                                ",
"                                                                                Q.H.Q.                                          ",
"                                                                                G.z.G.                                          ",
"                                                5.V V V V V V T c./.[.[.[.[.}.~.v.z.G.                                          ",
"                                                V z v v v v v A k.M.N.N.A.N.l.P z.z.G.                                          ",
"                                                V v v v v v A m.B.C.C.C.C.B.c.F R c.G.                                          ",
"                                                V z U U L m.B.C.C.C.C.B.k.P U U U c.G.                                          ",
"                                                S g P k.k.C.C.C.C.C.C.B.k.P P P L U 6.                                          ",
"                                                /.B.B.B.M.C.N.N.N.N.N.N.B.B.B.m.P F U 6.H.Q.                                    ",
"                                                [.N.C.C.C.C.C.C.C.C.C.C.C.C.C.B.k.L U U z.H.                                    ",
"                                            q.U B.C.l.v.;X1X1X1X1X1X1X,XoXoXC.N.B.m.Y T F G.                                    ",
"                                            ..Z B.B.z.v.:XaXiXiXiXiXiXuX-X&XZ.C.C.V.Y F F G.                                    ",
"                                    L.L.    5.Z U L Y v.:XaXiXiXiXuXuXuXuXuXoXoXOXm.Y F F 6.                                    ",
"                                    q.7.    ..D D U R H.:XtX:X:XuXuXuXuXiXuX%X%X'.~.Y F F T                                     ",
"                                    :.&.9X9X&.*.F._.%XuXuXc = 2 :XaXuXuXaXtXi # Z I.P.H.Z c                                     ",
"                                    9X6X5X5X6X&.F.`.*XaXuX2 . * >XiXuXuXaXtX= o k J.J.D.p                                       ",
"                              w &.9X0X7X7X8X8X=.F.XX;XaXtX ._ ( rXaXuXuXaXtXw 4  .).J.J.).                                      ",
"                              6 %.6X5X5X5X5X7X=.K.XX,XaXrXwX4X3XeX1XuXuXaXtX-.] X.).J.(.].                                      ",
"                              7 #.#.+.+.+.+.%.*.K.XX,XaXyXwX4X3XeXiXuXuXiXrX-.] | U._.+X@X                                      ",
"                                ( 3XO.[ @.@.@.{ F.`.;XsXyX;.3X;.eXiXuXuXiXrX| ' X.(.`.#X=X                                      ",
"                                  ( $._ [ [ [ [ o.J.XX*XuXeXeXeXuXuXuXuXuXuXrXrX%X@X!.c.].                                      ",
"                                    ( qX[ ) ) ) ..x._.XX,XiXiXiXiXuXuXuXiXiXiXiX&XXXD.e 2                                       ",
"                                        ( 5 4 4 6 T H.J.+X;XuXuXuXuXuXuXuXuXaX>X_.b.c.; 6                                       ",
"                                                  m 2 c.I.{.$X#X+X+X+X+X#X#X#X{.J.i l                                           ",
"                                                  w - C U R G.G.I.!.(.!.x.c.c.c.T > 0                                           ",
"                                                  w - - ; ; ; - E D.D.D.> * = = - - 0                                           ",
"                                              1.x 0 1 1 1 1 1 1 S D D C 1 < 1 8 < < 9                                           ",
"                                              B 8 c t.c Q ! 0.H H + . + H W W W x q B                                           ",
"                                          1.N b b H T.b ! t.Y.Q K # $ 2 W r.t.^ c c M                                           ",
"                                          N c (.(.(._.J.0./ W.W.W.Y.Y.Y.Y.^ r.t.R H.P.8 6                                       ",
"                                          J b '.'._.(.P.0./ ^.^.^.n.R.E.E./ ^ ! J.'.|.I X                                       ",
"                                      e.9.T.R.*X&Xc.: # G t.n.^.j y h.n.E./ G @ R @X2XH.X                                       ",
"                                      8.I R./.;X&XR + O G t.Y. Xl.j.h.XX Xt.b O R &X<XH.X                                       ",
"                                  g.  8.I R.%X2X'.T + + b 0.t.^.%XXXXX%X X/ b O U ].*X0.*                                       ",
"                                  8.8.4.4.R.@X@X(.F + + % r s g h A A h g e , O Z (.|.S *                                       ",
"                                  8.<.4.4.0.G H.D.Z + + & t e s f f f f s & @ + k c.D.z *                                       ",
"                              w.w.4.4.4.4.B x 6.D.S + # G K K K K K K Q K K b . k 7.F.k *                                       ",
"                              w.I 4.4.4.4.x x 7.6.S # : W r.r.r.^ r.r.r.r.t.K + l T E k *                                       ",
"                              w.4.4.4.4.4.x x = + = Q W r.r.r.W W W W r.r.r.r.Q : @ # + -                                       ",
"                              w.4.4.4.4.4.B x * * + Q ^ W ! W 3 # # 3 W ^ W ^ W = - - - 8                                       ",
"                          g.8.4.4.4.4.4.<.J 1 <   8 % u u u Q 1 - - 1 Q i u u , :                                               ",
"                          w.<.4.4.4.4.4.M x 0 0   8 % e e & >         8 % e e % :                                               ",
"                          1.<.4.4.4.<.M x M     w = b I i & =         > % u H G @ 0                                             ",
"                          ,.x <.4.4.M x M ,.    8 # i a u % :         > , p k k : -                                             ",
"                          ,.q x M <.B N         8 # a a a u =         > u i i i p >                                             ",
"                          1.B x x M x N         m = k v v i 1         8 p k k k : 9                                             ",
"                              N q x x N           0 2.i.` }             } } p.3.9                                               ",
"                              1.N N N ,.          w u.s.` }             2.` a.a.w                                               ",
"                                                a.u.s.u.` `             ` ` u.u.i.a.f.                                          ",
"                                                i.d.d.d.>.>.            >.>.a.d.d.d.p.                                          ",
"                                                                                                                                ",
"                                                                                                                                ",
"                                                                                                                                ",
"                                                                                                                                ",
"                                                                                                                                ",
"                                                                                                                                ",
"                                                                                                                                ",
"                                                                                                                                "
};
