/* XPM */
static char *P0[] = {
/* columns rows colors chars-per-pixel */
"64 64 227 2 ",
"   c #1F1213",
".  c #180B06",
"X  c #220C07",
"o  c #28160C",
"O  c #3A180B",
"+  c #261915",
"@  c #2C1D1A",
"#  c #2C1B13",
"$  c #331C17",
"%  c #2E221C",
"&  c #33251E",
"*  c #392517",
"=  c #1E1034",
"-  c #190D2F",
";  c #2C1929",
":  c #382829",
">  c #342524",
",  c #3A2A36",
"<  c #3D3229",
"1  c #441D12",
"2  c #451907",
"3  c #482618",
"4  c #562A17",
"5  c #6C3018",
"6  c #4B2B22",
"7  c #512C22",
"8  c #43352D",
"9  c #4A362A",
"0  c #543125",
"q  c #533B2A",
"w  c #493A36",
"e  c #5C3A38",
"r  c #402C31",
"t  c #763D22",
"y  c #673B35",
"u  c #733E34",
"i  c #67372A",
"p  c #7F1108",
"a  c #3E6E05",
"s  c #445912",
"d  c #456B0D",
"f  c #477A0C",
"g  c #4C6514",
"h  c #477D11",
"j  c #4B7E11",
"k  c #4A7616",
"l  c #537C19",
"z  c #516E13",
"x  c #59452C",
"c  c #564435",
"v  c #664F2E",
"b  c #7A432D",
"n  c #754233",
"m  c #794739",
"M  c #685436",
"N  c #6D5D3D",
"B  c #725E3E",
"V  c #684636",
"C  c #76623E",
"Z  c #370051",
"A  c #351748",
"S  c #3D3A45",
"D  c #3E225F",
"F  c #2F1966",
"G  c #450559",
"H  c #550C5F",
"J  c #4E374D",
"K  c #6B3B4C",
"L  c #530869",
"P  c #510D6E",
"I  c #6D1579",
"U  c #6A0E7B",
"Y  c #6C277D",
"T  c #4C2C65",
"R  c #43424B",
"E  c #584744",
"W  c #4C4458",
"Q  c #624E43",
"!  c #684647",
"~  c #7B4942",
"^  c #65524E",
"/  c #775C41",
"(  c #6A5554",
")  c #714C51",
"_  c #736440",
"`  c #7B6442",
"'  c #4C4A69",
"]  c #51516E",
"[  c #555373",
"{  c #514D6E",
"}  c #736167",
"|  c #83170C",
" . c #854A39",
".. c #824D35",
"X. c #8A4C2F",
"o. c #8E6B3F",
"O. c #BC6A37",
"+. c #CE712E",
"@. c #C46D32",
"#. c #CA6F35",
"$. c #CC7333",
"%. c #CA7738",
"&. c #CA6F2E",
"*. c #894944",
"=. c #885647",
"-. c #845244",
";. c #945650",
":. c #95564C",
">. c #A35D4C",
",. c #866B44",
"<. c #8E6159",
"1. c #957146",
"2. c #A9614E",
"3. c #A87D4A",
"4. c #AE6952",
"5. c #A86555",
"6. c #B46C53",
"7. c #BB7557",
"8. c #B67048",
"9. c #BE7E65",
"0. c #C87441",
"q. c #C77854",
"w. c #C67C62",
"e. c #3F8304",
"r. c #488A06",
"t. c #46850B",
"y. c #4A8C0B",
"u. c #478508",
"i. c #538C0D",
"p. c #4B930D",
"a. c #4A9A0C",
"s. c #45940B",
"d. c #52980F",
"f. c #4E8A14",
"g. c #4B8313",
"h. c #528716",
"j. c #4D9913",
"k. c #539514",
"l. c #539C13",
"z. c #569C19",
"x. c #5B9717",
"c. c #639C17",
"v. c #59A115",
"b. c #55A319",
"n. c #5BA41A",
"m. c #56A91A",
"M. c #56A517",
"N. c #4FA013",
"B. c #65AA1E",
"V. c #67A51B",
"C. c #71A81F",
"Z. c #5B9C21",
"A. c #609E23",
"S. c #5EA621",
"D. c #6CA522",
"F. c #68A924",
"G. c #73AC26",
"H. c #79B226",
"J. c #7AB52C",
"K. c #7BB835",
"L. c #6DB128",
"P. c #7EC139",
"I. c #7DAE5F",
"U. c #84B72E",
"Y. c #82B92D",
"T. c #85BB32",
"R. c #89BE34",
"E. c #83BE39",
"W. c #86B735",
"Q. c #8BC335",
"!. c #8BC834",
"~. c #8CC43B",
"^. c #84C93F",
"/. c #8DC93D",
"(. c #84C137",
"). c #91C537",
"_. c #92C63B",
"`. c #99C73D",
"'. c #95CA3E",
"]. c #98CC3E",
"[. c #99D13E",
"{. c #95D13D",
"}. c #B28A58",
"|. c #8CBF44",
" X c #84BA50",
".X c #C7875B",
"XX c #CB8955",
"oX c #D8975B",
"OX c #CC8763",
"+X c #D28663",
"@X c #CA9465",
"#X c #DA9C72",
"$X c #D5966B",
"%X c #DBAE7D",
"&X c #DDA474",
"*X c #DBA26B",
"=X c #E3AC77",
"-X c #E6B17B",
";X c #E1A06E",
":X c #86C940",
">X c #8DC842",
",X c #95C641",
"<X c #96CA40",
"1X c #99CB42",
"2X c #9BCC4C",
"3X c #97C748",
"4X c #96D042",
"5X c #9BD245",
"6X c #9DD24B",
"7X c #9CCD51",
"8X c #9ED459",
"9X c #A2CD48",
"0X c #A4D14E",
"qX c #57118E",
"wX c #6E0D86",
"eX c #700E87",
"rX c #721888",
"tX c #5F2082",
"yX c #632388",
"uX c #D8AB87",
"iX c #D6A88B",
"pX c #DCB183",
"aX c #E4B682",
"sX c #E6B983",
"dX c #EAB987",
"fX c #E1AE8F",
"gX c #ECC089",
/* pixels */
",X`.,X9X9X9X1X1X9X1X`.1X,X3X7X3X3X3X3X3X2X2X2X2X2X0X0X2X2X2X2X2X2X2X7X3XR.~.6X1X3X6X8X<X3X6X6X1X6X1X].[.'.1X].'.].5X1X,X>X2X8XI.",
"4X].'.[.'.5X1X1X1X1X1X].].1X1X1X4X4X1X].].'.].1X1X5X1X1X1X1X1X1X1X1X1X1X1X1X1X9X2X2X2X6X6X1X1X1X'.5X].5X1X1X1X5X1X1X1X4X2X2X7X X",
"{.{.'.{.].<X4X1X1X1X4X[.'.[.].5X].].].'.].].].'.1X1X1X1X1X1X1X1X1X1X1X1X1X1X9X1X2X1X1X2X1X1X1X5X5X'.1X1X1X2X1X1X1X1X5X5X1X1X6X|.",
"1X].].1X1X1X1X1X1X1X1X1X1X1X1X1X1X1X1X1X1X1X1X1X1X1X1X1X1X1X1X1X1X1X1X1X1X1X1X1X1X1X1X1X1X1X1X1X1X1X1X1X1X1X1X].].4X4X].'.{.5X>X",
"].].].].1X1X1X1X1X1X1X1X1X1X1X1X1X1X1X1X1X1X1X1X1X1X1X1X1X1X1X1X1X1X1X1X1X1X1X1X1X1X1X1X1X1X1X1X1X1X1X1X1X1X1X].].].].].].{.5X~.",
"].].].].1X1X1X1X1X1X1X1X1X1X1X1X1X1X1X1X1X1X1X1X1X1X1X1X1X1X1X1X1X1X1X1X1X1X1X1X1X1X1X1X1X1X1X1X1X1X1X1X1X1X].].].].].].].{.5X^.",
"].].].].1X1X1X1X1X1X1X1X1X1X1X1X1X1X1X1X].1X1X1X1X1X1X1X1X1X1X1X1X1X1X1X1X1X1X1X1X1X1X1X1X1X1X1X1X1X1X1X1X1X].].].].].].].].[.Q.",
"].].].].1X1X1X1X1X1X1X1X1X1X1X1X1X1X1X1X].].1X1X1X1X1X1X1X1X1X1X1X1X1X1X1X1X1X1X<.=.<.1X1X1X1X1X1X1X].1X1X1X1X].].].].].].].[.!.",
"].].].].1X1X1X1X1X1X1X1X1X1X1X1X1X1X1X1X1X1X1X1X1X1X1X1X1X].1X1X1X1X1X1X'.1X1X1X-...-.1X1X1X1X1X'.'.1X1X1X1X1X].].].].].].].[.!.",
"].].].].'.1X1X1X1X1X1X1X1X1X1X1X1X1X1X1X1X1X1X1X! e e e e e e m  .8.0.0.0.0.0.8.....-.1X1X1X1X1X1X].1X1X1X1X1X].].].].].].].[.!.",
"].].].].'.1X1X1X1X1X1X1X1X1X1X1X1X1X1X1X1X1X1X1Xe 7 0 0 0 0 0 t X.&.+.+.+.+.X.b ....-.1X1X1X1X1X1X1X1X1X1X1X1X].].].].].].].5X!.",
"].].].].'.1X1X1X1X1X1X1X1X1X1X1X1X1X1X1X1X1X1X1Xe 0 0 0 0 0 t O.@.$.$.$.$.@. .u m  .-.1X1X1X1X1X1X1X1X1X1X1X1X].].].].].].].5X~.",
"].].].].].1X1X1X1X1X1X1X1X1X1X1X1X1X1X1X1X1X1X1Xe 7 n n b O.@.$.$.$.$.@.X.b n n n  .-.1X1X1X1X1X].].1X1X1X1X].].].].].].].].5X~.",
"'.'.].].].1X1X1X1X'.'.1X1X1X1X1X1X'.'.'.'.'.'.'.y 5 b X.X.$.$.$.$.$.$.@.X.b b b b n ~ 1X1X1X1X1X].].1X1X1X1X].].].].].].].].5X~.",
"'.'.].].].1X1X1X'.'.'.1X1X1X1X1X1X'.'.'.].].].].8.@.@.@.&.$.+.+.+.+.+.+.@.@.@.O.b u n ~ =.<.1X1X'.].].1X1X1X].].].].].].].].5X^.",
"].].].].].1X1X1X'.'.'.1X1X1X1X1X1X'.'.'.].].].].0.+.$.$.$.$.$.$.$.$.$.$.$.$.$.@.X.b n n ..=.1X1X].].1X1X1X1X'.'.].].].].].].1X/.",
"].].].].].].].].'.'.'.1X1X1X1X1X1X'.'.'.'.'.) n @.$.X...&X-X-X-X-X-X-X=XoXoX$.+.@.O.b m u -.1X1X1X1X].].].].].].].'.1X'.1X1X5XQ.",
"'.'.'.].].].'.'.'.'.'.1X1X1X1X1X1X1X'.'.'.'.K i @.@.....%XdXsXsXsXsXsXaX*X$X%.$.$.#.b u u -.1X1X1X1X].].].].].1X].1X].'.1X'.5XQ.",
"].].].'.'.'.].].'.'.'.1X1X1X1X1X1X1X<.<.'.'.! i n b b ..%XdXsXsXsXaXaXaXaXaXoXoXXXO.b u u ~ 1X1X1X1X].].1X1X].1X'.1X'.].1XQ.5XE.",
"'.'.'.'.'.'.].'.].].'.'.'.'.'.'.'.1X) ~ '.'.K y y n m =.%XpX%X%XaXaXaXaXsXaX@X@X7.8.b u u m 1X1X1X1X1X1X1X1X].'.1X1X1X1X1XR.1XJ.",
"'._.'.'.'.].].1X'.'.'.].'.'.'.'.'.1XY I rXrXI I *.6.@XaXaX9 # * %XdXaXaXdXpX3 # i >.;.=.i 9 1X1X1X1X1X1X1X1X'.'.1X1X'.1X1XJ.V.c.",
"_.'.].].'.'.'.1X'.'.].].'.'.'.'.].1XrXwXwXwXwXI *.7.#XdXaX* . + %XsXaXaXdXpX# . 6 :.:.*.3 1X1X1X1X1X1X1X1X'.'.'.'.1X1X<X^.G.x.i.",
"!.'.].].'.'.'.'.'.1X1X].'.'.'., I rXwXeXeXeXeXI *..X&XdXpXJ A A uXdXaXaXdXpX, = J 5.:.:.5.1X1X1X1X1X'.1X1X1X1X'.1X1X<XJ.x.i.i.t.",
"(._.].].'.'.'.].'.'.'.].'.'.'.; U wXwXwXwXwXeXI ;..X=XdXuXyXqXqXiX-XaXaXdXpXT F K 5.:.4.9.1X1X1X1X1X1X1X1X'.1X1X<X<X:XK.G.D.x.i.",
"J.!.1X'.'.'.'.'.'.1X1X1X1X1X1X; P P L L L L U I ;..X=XdXfXyXqXqXiXsXaXaXsXuXT F T >.6.OXOX1X1X1X1X1X1X1X1X1X1X<X1XJ.c.c.x.x.x.g.",
"4X4X'.'.1X].'.1X1X1X1X1X1X1X1X1XA qXG G L L L H *.7.&XdXfXY qXY iXsXaXaXsXuXT D K 4.7.+X$X1X1X1X1X1X1X1X1X1X1X1X1XQ.D.F.c.c.x.h.",
"1X'.'.'.1X'.'.'.1X1X1X1X1X1X1X1X1XA P A G G G G K :..X#XaXiXiXiXaXaXaXaXaXaXuXuX@XOX2. .9.1X1X1X1X1X1X1X1X'.Q.W.H.G.c.x.x.x.i.g.",
"<X<X1X1X'.'.1X1X1X1X1X1X1X1X1X1X1X1XA tXG Z Z Z K  .6..X=XsXsXsXsXaXaXaXsXsXsXsX$X.X*.1 * 1X1X1X1X1X,X1X1X1XE.G.C.D.D.D.x.x.i.h ",
"'.'.'.'.'.'.1X1X1X1X1X1X1X1X1X1X1X1X1X1XA - = = ; m =.:.OX&XaXaXaXaXaXaXaXaXdX%X6.o. .+ ; 1X1X1X1X1X1X'.'.1X'.Q.U.J.J.G.F.F.i.g.",
"1X'.1X1X`.].1X1X1X1X1X1X1X1X1X1X1X1X1X1X1X1X1X1X1Xr *  .>.w.+X+XOXOXOXOX+X+X+Xw.:.3 6 1X1X1X1X1X1X1X].'.].].~.U.H.H.V.D.c.c.i.t.",
"1X1X'.'.].].1X1X1X1X1X1X1X1X1X1X1X1X1X1X1X1X1X1X1X, @ e n m -.-.>.2.4.2. . . . .m $ : 1X1X1X1X1X1X1X'.].1X'.Q.U.H.G.V.V.x.x.i.t.",
"'.'.'.'.].].1X1X1X1X1X1X1X1X1X1X1X1X1X1X1X1X1X1X1X, @ @ + + + @ m *.*.*.$ + # # @ @ : 1X1X1X1X1X1X1X'.'.'.'.].5X'.Q.J.D.V.x.x.i.",
"'.'.'.'.'.'.1X1X1X1X1X1X1X1X1X1X1X1X1X1X1X1X1XE 8 : & & & & & & y y y e & % & > % % : 1X1X<X<X<X1X1X'.].].].'.1X1X<XJ.V.V.V.c.i.",
"1X'.'.1X1X'.1X1X1X1X1X1X1X1X1X1X1X1X1X1X1X1X1X8 > 9 ` 9 M B / c c o . o c N N N 8 < 8 1X1X<X1X<X1X1X'.'.'.'.'.'.1X1X(.H.G.H.D.x.",
"1X'.'.'.'.'.1X1X1X1X1X1X1X1X1X`.`.1X1X1X1XE w q q c ,.q B ` ,.M v # o * N _ ` C 9 9 w 1X1X1X1X<X1X1X'.'.'.'.].1X'./.'.>XJ.K.G.c.",
"].'.'.'.'.'.1X1X1X1X1X1X1X1X1X1X1X1X1X1X1Xw 9 4.4.4.6.:./ C 1.1.1.,.,.,.,.C _ ` m =.;.> ; '.'.'.'.'.'.'.'.'.'.'.'.'.1X1XW.J.G.d.",
"].].'.'.'.'.1X1X1X1X1X1X1X1X1X1X1X1X1X1X1Xc q 7.7.6.4.;./ C 3.3.3.o.1.1.1.C C B :.7.w.V   1X1X1X1X1X'.'.'.'.'.'.'.'.<X1XQ.T.W.c.",
"'.'.'.'.'.'.1X1X1X1X1X1X1X1X1X1X1X1X1X^ ^ ,.1.#X$X .$ # x ` o.3.5 p | o.1.C x o m OX;X=.  1X1X1X1X1X1X'.'.'.'.'._._.].1XQ.(.T.c.",
"'.'.'.'.'.'.1X1X1X1X1X1X1X1X1X1X1X1X1X^ V 1.8.&X$Xm o X x ` ,.}.X.| | .X}.` q X m $X=X=.  <X1X1X1X1X'.'.'.'.'._.'._.'.'.R.T.U.c.",
"'.'.'.'.'.'.1X1X1X1X`.1X1X1X1X1X1X} 1X^ V 1.@X;X7.m o o q / ` 3.@X.X.X@X}.C q X n 9.#X/ + 1X1X1X1X1X'.'.'.'.'._.'._.'.'.T.T.W.c.",
"'.'.'.'.'.'.1X1X1X'.`.1X1X1X1X1X1X^ ^ Q Q 1.OXOX4.u o o O 1 4 5 t t t t 5 1 O X i 4.w.y + <X'.'.'.'.'.'.'.'.'._.'._.].'.R.T.Y.c.",
"'.'.'.'.'.'.'.'.`.`.`.1X1X1X1X1X1X^ E Q Q / x =.*.i o o O 2 1 4 5 5 5 5 4 O o o 6  .*.7 + <X'.'.'.'.<X'.'.'.'.'.'._._.'.R.Y.U.c.",
"].].].].'.'.'.'.`.`.`.1X1X1X1X( ( Q Q Q Q 8 8 ~ *.y o # x v v v v v v M v v q . 6 ~ *.6 + `.'.`.`.`.<X<X<X'.'.'.'._.'.'.R.W.T.c.",
"_.].].].'.'.'.'.`.`.`.1X1X1X1X( V Q Q Q Q 8 8 ~ ~ y # $ N _ _ _ C _ _ _ _ ` v o 6 m m 6 + `.`.`.`.`.,X'.<X'.'.'.'.'.'.1XR.T.T.V.",
"].'.'.'.'.'.'.'.'.'.'.1X1X1X1X( Q Q Q Q Q 8 8 # o # M N _ _ _ N N N N C _ _ _ M $ o # o @ 1X1X1X'.'.1X'.'.'.'.'.'.'.'.'.T.T.T.c.",
"].'.'.'.'.'.'.'.'.'.'.1X1X1X1X( Q Q Q Q Q 8 8 + + o M C N B N * # # * N C N C N # @ @ @ > '.<X<X'.'.'.'.'.'._._._._.'.'.R.U.T.c.",
"].].'.'.'.'.'.'.'.'.'.'.`.} ^ Q Q Q Q Q E c & % '.> O 3 3 3 M & @ @ & M 3 3 3 O $ ,X'.'.'.'.<X'.'.'.'.'.'._._._._.'.'.1XR.U.W.c.",
"_._._.].'.`.`.'.'.'.'.`.`.( E Q Q Q Q Q w 8 : : '.> O 1 1 O $ '.'.'.'.> O 1 1 O $ ,X'.'.'.<X<X'.'.'.'._._._._._._._._.Q.J.J.W.c.",
"_._.'.'.'.].].'.'.]._._._.E E Q Q Q E w 8 w '.'., # q V 3 O # _._._.].$ O 3 c x o : '.'.'.'.'.'.'.'._._.'._._._._.'.Q.R.C.J.T.c.",
"Q.~.'._.'.'.].].].].]._.'.E 8 E Q Q w 8 w E '.'.> # 3 4 3 O $ _._._.].$ O 3 6 6 $ @ '.'._._.'.'.'.'._._._.~._.'.'.'.~.E.V.G.J.c.",
"C.J.!._.].]._._._.'.].'.'.E < 8 w E 8 w '.'.'.'.> # 4 4 4 3 # '.'.'.'.$ 3 3 3 3 3 $ _.'._._.'.'.'.'._._._._.'.~.~.Q.Q.~.J.V.c.x.",
"C.H.!.'._._._.].].].'.'.'.E 8 8 8 w 8 w '.'.'.'.r # 6 0 0 3 & '.'.'.'.> 3 6 6 6 $ : '._._._._._._.'.'._.'.'.~.J.H.H.J.K.G.D.D.x.",
"C.H.Q.!.)._.].].'.'.'.'.'.'.'.w < 8 8 w '.'.'.'.'.: W ' S J '.'.'.'.'.'.J J { W : '.'._._._._._._._.'.~.~.'.~.H.G.J.J.E.K.K.K.c.",
"V.C.(.!.~.).).).)._._.`.'.'.'.E w w w E '.'.`.`._., ' { S J '.'._._.'._.W S ] ] , _._.~._._._._._._.~.~.Q.~.~.J.C.G.G.L.x.A.F.h.",
"v.V.J.(.Q.~.~.)._.Q._.`.'.`.'.'._.'._.'.`._.'.'.] ' { ' S S Q.'.'.'.R.~.S S ' ' ' ] [ '.'.'.~.'.'.Q.~.>X~.E.E.G.F.J.J.K.F.x.i.g.",
"B.B.J.(.~././.'.R.Q.,X,X,X_.`._.).].)._._.Q.,X~.' [ [ [ R R ~.>X>X~.G.T.R R ] [ [ [ { ~.'._.|.|.3XW.K.E.K.K.K.L.F.L.K.K.c.i.x.f.",
"n.n.F.B.B.L.F.F.V.G.<X>X/.~./.>X/././.>X(.P.:X(.J.:X:X:X^.J.P.:X^.P.V.J.>X/.>X/.^./.^.^.^.^.>X>X>XJ.L.K.(.K.K.F.x.F.F.F.k.y.i.t.",
"s.s.j.a.a.l.l.x.d.x.F.V.V.n.B.B.B.B.L.L.m.l.S.S.n.F.F.F.F.n.n.n.v.m.l.n.F.F.F.F.B.F.F.F.F.F.L.L.L.x.V.F.x.x.x.A.A.A.x.x.k.k.h.t.",
"j.j.j.j.j.l.j.v.l.l.n.b.M.b.m.M.M.m.m.m.b.s.j.j.M.m.m.m.m.m.a.a.j.N.j.j.l.l.v.v.v.v.n.M.d.l.l.l.z.a.k.z.y.r.t.t.f.f.g.g.t.g.g.f ",
"y.j.z.n.z.v.l.v.l.n.F.m.m.m.m.N.M.m.b.b.b.p.j.s.a.b.m.M.M.M.s.a.l.j.s.j.v.l.v.n.v.l.v.l.l.v.n.x.x.p.z.Z.f.f.f.f.f.f.f.f.f.h.h f ",
"u.i.k.k.y.p.p.y.r.y.d.a.d.l.a.s.a.M.v.m.z.r.j.p.a.m.m.m.l.b.p.a.z.n.p.p.n.n.n.n.x.l.v.l.d.k.l.k.k.r.k.Z.t.t.g.g.g.g.h j h h.h h ",
"t.k.x.x.k.k.d.d.p.y.l.v.l.l.d.p.p.p.p.j.p.u.y.t.r.p.a.p.p.j.r.p.y.k.y.t.z.k.k.k.k.k.k.a.p.z.z.z.k.y.h.x.f.g.g.h.h.l h.l l l k k ",
"f t.i.i.t.t.u.u.u.u.y.p.r.r.r.u.u.r.r.t.t.u.t.f u.r.y.u.r.y.u.t.u.t.f f f.y.t.t.u.u.e.u.u.t.u.u.t.f h j f a d d d d d d k k k z ",
"j h.h.h.j h.j j j j h.i.h.h.h.j j g.j j j j j f f h h f j f f h f l k k h.g.g.g.g.g.f f h g.h h j k l l g d g g g g g s g g s s "
};
